<?xml version="1.0" encoding="UTF-8"?>
<svg width="16px" height="16px" viewBox="0 0 16 16" version="1.1" xmlns="http://www.w3.org/2000/svg" xmlns:xlink="http://www.w3.org/1999/xlink">
    <title>UI/Icon/system/cloud-upload</title>
    <defs>
        <path d="M12.9,4.6525 C12.4466667,2.280625 10.4266667,0.5 8,0.5 C6.07333333,0.5 4.4,1.6275 3.56666667,3.2775 C1.56,3.4975 0,5.250625 0,7.375 C0,9.650625 1.79333333,11.5 4,11.5 L12.6666667,11.5 C14.5066667,11.5 16,9.96 16,8.0625 C16,6.2475 14.6333333,4.77625 12.9,4.6525 Z M9.33333333,6.6875 L9.33333333,9.4375 L6.66666667,9.4375 L6.66666667,6.6875 L4.66666667,6.6875 L8,3.25 L11.3333333,6.6875 L9.33333333,6.6875 Z" id="path-1"></path>
    </defs>
    <g id="UI/Icon/system/cloud-upload" stroke="none" stroke-width="1" fill="none" fill-rule="evenodd">
        <g id="Rectangle" transform="translate(0.000000, 2.000000)">
            <mask id="mask-2" fill="white">
                <use xlink:href="#path-1"></use>
            </mask>
            <use id="Mask" fill="#000000" fill-rule="nonzero" xlink:href="#path-1"></use>
            <rect fill="#4E5F7B" mask="url(#mask-2)" x="0" y="-2" width="16" height="16"></rect>
        </g>
    </g>
</svg>