<?xml version="1.0" encoding="utf-8"?>
<!-- Generator: Adobe Illustrator 25.0.1, SVG Export Plug-In . SVG Version: 6.00 Build 0)  -->
<svg version="1.1" id="Layer_1" xmlns="http://www.w3.org/2000/svg" xmlns:xlink="http://www.w3.org/1999/xlink" x="0px" y="0px"
	 viewBox="0 0 382.1 59.4" style="enable-background:new 0 0 382.1 59.4;" xml:space="preserve">
<style type="text/css">
	.st0{fill:#40327C;}
	.st1{fill:#7061FF;}
</style>
<g>
	<path class="st0" d="M8.4,8.9v37.8h26.4c2.1,0,3.8,1.7,3.8,3.8v0c0,2.1-1.7,3.8-3.8,3.8H4.6c-2.5,0-4.6-2-4.6-4.6V8.9
		c0-2.1,1.7-3.8,3.8-3.8h0.9C6.7,5.1,8.4,6.8,8.4,8.9z"/>
	<path class="st0" d="M72.1,33.4H57v13.3h29.5c2.1,0,3.8,1.7,3.8,3.8v0c0,2.1-1.7,3.8-3.8,3.8H53.2c-2.5,0-4.6-2-4.6-4.6v-40
		c0-2.5,2-4.6,4.6-4.6h31.5c2.1,0,3.8,1.7,3.8,3.8v0c0,2.1-1.7,3.8-3.8,3.8H57v13.3h15.1c2.1,0,3.8,1.7,3.8,3.8v0
		C75.9,31.8,74.2,33.4,72.1,33.4z"/>
	<path class="st0" d="M245.5,42.6c1.7,1.6,1.6,4.4-0.3,5.8c-5.2,4.1-12.3,7.3-21,7.3c-16.2,0-26.8-11.6-26.8-26.1
		c0-14.2,10.7-26,26.5-26c7.1,0,13.9,2.2,19.2,5.7c2.1,1.4,2.4,4.3,0.6,6.1l-0.1,0.1c-1.3,1.3-3.4,1.5-5,0.4
		c-4.2-2.9-9.7-4.7-14.6-4.7c-10.7,0-17.7,8.4-17.7,18.6c0,10.2,7.1,18.5,18.1,18.5c6.2,0,11.7-2.5,15.8-5.9
		C241.8,41.1,244.1,41.2,245.5,42.6L245.5,42.6z"/>
	<path class="st0" d="M282.5,3.6c15.5,0,27.8,11.6,27.8,25.9c0,14.6-12.3,26.1-27.8,26.1c-15.5,0-27.6-11.6-27.6-26.1
		C254.9,15.2,267,3.6,282.5,3.6z M282.5,48.2c10.6,0,18.9-8.4,18.9-18.6c0-10.1-8.3-18.4-18.9-18.4c-10.5,0-18.7,8.3-18.7,18.4
		C263.8,39.8,272,48.2,282.5,48.2z"/>
	<path class="st0" d="M367.1,9.3v40.3c0,2.5-2,4.6-4.6,4.6l0,0c-1.8,0-3.6-0.8-4.7-2.2l-26.5-31.8h-0.1V50c0,2.3-1.9,4.2-4.2,4.2
		l0,0c-2.3,0-4.2-1.9-4.2-4.2V9.7c0-2.5,2-4.6,4.6-4.6l0,0c1.8,0,3.6,0.8,4.7,2.2l26.5,31.8h0.1V9.3c0-2.3,1.9-4.2,4.2-4.2h0
		C365.2,5.1,367.1,7,367.1,9.3z"/>
	<g>
		<g>
			<path class="st1" d="M143.3,58.2L143.3,58.2c1.6-1.6,1.6-4.2,0-5.7l-12.7-12.7c-2.5-2.5-6.7-2.5-9.2,0l-12.7,12.7
				c-1.6,1.6-1.6,4.2,0,5.7v0c1.6,1.6,4.2,1.6,5.7,0l11.5-11.5l11.5,11.5C139.2,59.7,141.7,59.7,143.3,58.2z"/>
		</g>
		<g>
			<path class="st1" d="M108.8,1.2L108.8,1.2c-1.6,1.6-1.6,4.2,0,5.7l12.7,12.7c2.5,2.5,6.7,2.5,9.2,0l12.7-12.7
				c1.6-1.6,1.6-4.2,0-5.7v0c-1.6-1.6-4.2-1.6-5.7,0l-11.5,11.5L114.5,1.2C112.9-0.4,110.4-0.4,108.8,1.2z"/>
		</g>
		<g>
			<path class="st0" d="M154.5,12.4L154.5,12.4c-1.6-1.6-4.2-1.6-5.7,0l-12.7,12.7c-2.5,2.5-2.5,6.7,0,9.2L148.8,47
				c1.6,1.6,4.2,1.6,5.7,0v0c1.6-1.6,1.6-4.2,0-5.7L143,29.7l11.5-11.5C156.1,16.6,156.1,14,154.5,12.4z"/>
		</g>
		<g>
			<path class="st0" d="M97.6,47L97.6,47c1.6,1.6,4.2,1.6,5.7,0L116,34.3c2.5-2.5,2.5-6.7,0-9.2l-12.7-12.7c-1.6-1.6-4.2-1.6-5.7,0
				v0c-1.6,1.6-1.6,4.2,0,5.7l11.5,11.5L97.6,41.2C96,42.8,96,45.4,97.6,47z"/>
		</g>
	</g>
	<g>
		<path class="st0" d="M374.6,5.7h-1.3V5.1h3.4v0.6h-1.3v3.7h-0.7V5.7z M377.5,5.1h1.1l1.3,3.2l1.3-3.2h1.1v4.3h-0.7V5.8h0L380,9.4
			h-0.4l-1.4-3.6h0v3.6h-0.7V5.1z"/>
	</g>
	<path class="st0" d="M186,46.7h-1.4h-3.5v-34h3.5h1.4c2.1,0,3.8-1.7,3.8-3.8s-1.7-3.8-3.8-3.8h-1.4h-15.3h-1.4
		c-2.1,0-3.8,1.7-3.8,3.8s1.7,3.8,3.8,3.8h1.4h3.5v34h-3.5h-1.4c-2.1,0-3.8,1.7-3.8,3.8c0,2.1,1.7,3.8,3.8,3.8h1.4h15.3h1.4
		c2.1,0,3.8-1.7,3.8-3.8C189.8,48.4,188.1,46.7,186,46.7z"/>
</g>
</svg>
