<svg xmlns="http://www.w3.org/2000/svg" width="84" height="16" viewBox="0 0 84 16"><g><g><g><g><path fill="#f2f2f2" d="M14.742 13.515H1.1a.97.97 0 0 1-.979-.967v-9.44c0-.532.434-.978.979-.978h13.643c.533 0 .98.434.98.979v9.426a.981.981 0 0 1-.98.98z"/></g><g opacity=".1"><path fill="#221f1f" d="M2.059 13.514l5.836-4.272.037-.247-6.01-4.325-.012 8.632z"/></g><g><g><path fill="#d44c3d" d="M1.099 13.514a.962.962 0 0 1-.979-.967V3.094c0-.545.434-.644.979-.644.545 0 .979.112.979.644v10.418z"/></g><g><path fill="#d44c3d" d="M15.721 3.055v9.49a.973.973 0 0 1-.979.979h-.979V3.068c0-.534.434-.608.98-.608.532 0 .966.062.978.595zm-.979-.459c-.632 0-.843.112-.83.471v10.319h.83a.83.83 0 0 0 .83-.83V3.067c0-.347-.198-.47-.83-.47zm-12.664.496V13.51h-.98a.966.966 0 0 1-.978-.98V3.093c0-.52.434-.632.979-.632.545 0 .966.1.979.632zm-1.81 0v9.442c.001.458.373.83.83.83h.831V3.091c0-.284-.136-.496-.83-.496s-.843.198-.83.496z"/></g><g><path fill="#d44c3d" d="M14.739 13.511h-.979V3.068c0-.545.434-.608.979-.608.545 0 .979.074.979.608v9.489a.976.976 0 0 1-.98.954z"/></g></g><g opacity=".08"><path fill="#221f1f" d="M10.56 13.513L.2 3.504l.545.223L7.957 8.92l7.757-5.689v9.327a.97.97 0 0 1-.979.967z"/></g><g><g><path fill="#d44c3d" d="M7.898 9.258L.537 3.918c-.434-.323-.558-.942-.235-1.376a1.001 1.001 0 0 1 1.387-.21l6.22 4.522 6.257-4.585a.966.966 0 0 1 1.365.223.965.965 0 0 1-.223 1.363z"/></g><g><path fill="#d44c3d" d="M14.743 2.08c.297 0 .595.15.793.41a.985.985 0 0 1-.223 1.363L7.9 9.256.541 3.903c-.434-.322-.56-.93-.248-1.363.186-.262.494-.398.805-.41.21 0 .421.062.583.185l6.231 4.536 6.26-4.585a.873.873 0 0 1 .57-.186zm-.002.149c-.187 0-.348.05-.51.136L7.987 6.95 7.9 7l-.087-.05-6.208-4.51a.768.768 0 0 0-.496-.162.831.831 0 0 0-.694.36c-.259.36-.16.892.212 1.165L7.901 9.08l7.336-5.34a.845.845 0 0 0 .186-1.165.845.845 0 0 0-.681-.347z"/></g></g></g><g><path fill="#787879" d="M81.272.344v15.311h1.966V.345zm-4.534 4.832v10.469h1.956V5.177zm2.373-3.615c0-.385-.136-.712-.407-.984a1.34 1.34 0 0 0-.984-.406 1.34 1.34 0 0 0-.984.406 1.34 1.34 0 0 0-.406.984c0 .385.135.713.406.984.27.27.598.406.984.406.385 0 .713-.135.984-.406a1.34 1.34 0 0 0 .406-.984zM67.088 12.45c0-.57.267-1.049.802-1.434s1.201-.577 2-.577c1.098 0 1.954.243 2.567.727 0 .828-.324 1.547-.973 2.16-.65.614-1.387.92-2.214.92a2.402 2.402 0 0 1-1.53-.513c-.435-.342-.652-.77-.652-1.283zM69.63 4.83c-1.868 0-3.28.684-4.235 2.053l1.733 1.092c.647-.927 1.514-1.39 2.612-1.39.727 0 1.362.238 1.904.715.542.478.813 1.06.813 1.744v.449c-.757-.428-1.72-.642-2.888-.642-1.369 0-2.463.321-3.284.963-.82.642-1.23 1.502-1.23 2.588 0 1.027.39 1.883 1.166 2.567.777.685 1.744 1.027 2.899 1.027 1.354 0 2.438-.599 3.251-1.796h.085v1.454h1.883V9.198c0-1.355-.421-2.421-1.262-3.198-.842-.777-1.99-1.166-3.444-1.166zM49.514 15.655V9.861c0-.87.257-1.625.77-2.267.513-.642 1.147-.963 1.903-.963.842 0 1.443.217 1.797.652.354.436.535 1.145.535 2.129v6.243h1.965V9.861c0-.87.257-1.625.77-2.267.513-.642 1.148-.963 1.904-.963.841 0 1.443.217 1.796.652.354.436.535 1.145.535 2.129v6.243h1.966V9.112c0-1.37-.328-2.425-.984-3.166-.656-.74-1.59-1.112-2.802-1.112-1.541 0-2.746.67-3.616 2.01A3.155 3.155 0 0 0 54.77 5.37c-.585-.354-1.262-.535-2.032-.535-.614 0-1.23.171-1.85.513-.621.342-1.08.77-1.38 1.284h-.086V5.176H47.54v10.479zm-4.03-7.034a6.58 6.58 0 0 0-.107-1.155h-7.423v1.84h5.562c-.157 1.497-.741 2.673-1.754 3.529-1.013.855-2.282 1.283-3.808 1.283-1.668 0-3.08-.578-4.235-1.733-1.14-1.168-1.711-2.63-1.711-4.385 0-1.754.57-3.216 1.711-4.385 1.158-1.155 2.567-1.732 4.235-1.732.856 0 1.658.16 2.407.48.749.321 1.358.767 1.829 1.338l1.412-1.412c-.64-.728-1.46-1.291-2.457-1.69A8.508 8.508 0 0 0 37.957 0c-2.224 0-4.107.77-5.647 2.31S30 5.747 30 8c0 2.253.77 4.15 2.31 5.69S35.733 16 37.957 16c2.325 0 4.2-.756 5.626-2.268 1.269-1.269 1.904-2.973 1.904-5.112z"/></g></g></g></svg>