<svg xmlns="http://www.w3.org/2000/svg" width="230" height="37" viewBox="0 0 230 37"><defs><clipPath id="p3r9a"><path d="M0 3.68h23.13v29.443H0z"/></clipPath><clipPath id="p3r9b"><path d="M64.55.6h22.16v12.905H64.55z"/></clipPath><clipPath id="p3r9c"><path d="M223.93 3.68h5.348v2.556h-5.348z"/></clipPath></defs><g><g><g><g/><g clip-path="url(#p3r9a)"><path fill="#fff" d="M5.05 5.934v22.68h15.826a2.254 2.254 0 1 1 0 4.509H2.732A2.732 2.732 0 0 1 0 30.39V5.934A2.255 2.255 0 0 1 2.255 3.68h.541A2.254 2.254 0 0 1 5.05 5.934"/></g></g><g><path fill="#fff" d="M43.293 20.656H34.23v7.958h17.675a2.254 2.254 0 0 1 0 4.509H31.912a2.731 2.731 0 0 1-2.732-2.732V6.412a2.732 2.732 0 0 1 2.732-2.732h18.91a2.254 2.254 0 1 1 0 4.508H34.23v7.959h9.063a2.254 2.254 0 0 1 0 4.509"/></g><g><path fill="#fff" d="M147.312 26.134c.992.98.933 2.625-.163 3.486-3.105 2.435-7.36 4.406-12.572 4.406-9.694 0-16.097-6.988-16.097-15.645 0-8.522 6.448-15.601 15.87-15.601 4.256 0 8.37 1.333 11.532 3.413 1.253.825 1.44 2.589.372 3.642l-.045.045c-.804.793-2.057.9-2.983.251-2.526-1.769-5.808-2.843-8.784-2.843-6.447 0-10.641 5.05-10.641 11.138 0 6.132 4.284 11.091 10.866 11.091 3.748 0 7.048-1.497 9.507-3.516a2.343 2.343 0 0 1 3.138.133"/></g><g><path fill="#fff" d="M169.487 2.78c9.288 0 16.683 6.944 16.683 15.556 0 8.747-7.395 15.69-16.683 15.69s-16.547-6.943-16.547-15.69c0-8.612 7.26-15.556 16.547-15.556m0 26.737c6.358 0 11.363-5.05 11.363-11.181 0-6.087-5.005-11.048-11.363-11.048-6.311 0-11.226 4.96-11.226 11.048a11.16 11.16 0 0 0 11.226 11.181"/></g><g><path fill="#fff" d="M220.257 6.205V30.39a2.732 2.732 0 0 1-2.732 2.732 3.693 3.693 0 0 1-2.839-1.33l-15.891-19.095h-.045v17.9a2.524 2.524 0 1 1-5.05 0V6.412a2.732 2.732 0 0 1 2.732-2.732c1.097 0 2.138.487 2.839 1.33l15.891 19.096h.045V6.205a2.525 2.525 0 0 1 5.05 0"/></g><g><path fill="#7061ff" d="M85.997 35.502a2.435 2.435 0 0 0 0-3.444l-7.602-7.603a3.91 3.91 0 0 0-5.529 0l-7.603 7.603a2.435 2.435 0 1 0 3.445 3.444l6.923-6.923 6.922 6.923a2.436 2.436 0 0 0 3.444 0"/></g><g><g/><g clip-path="url(#p3r9b)"><path fill="#7061ff" d="M65.263 1.313a2.435 2.435 0 0 0 0 3.444l7.603 7.603a3.91 3.91 0 0 0 5.528 0l7.603-7.603a2.435 2.435 0 1 0-3.444-3.444L75.63 8.236l-6.923-6.923a2.435 2.435 0 0 0-3.444 0"/></g></g><g><path fill="#fff" d="M92.722 8.043a2.435 2.435 0 0 0-3.444 0l-7.603 7.603a3.91 3.91 0 0 0 0 5.528l7.603 7.603a2.435 2.435 0 1 0 3.444-3.444l-6.923-6.923 6.923-6.923a2.435 2.435 0 0 0 0-3.444"/></g><g><path fill="#fff" d="M58.543 28.777a2.435 2.435 0 0 0 3.444 0l7.603-7.602a3.91 3.91 0 0 0 0-5.529l-7.603-7.603a2.435 2.435 0 1 0-3.444 3.445l6.923 6.923-6.923 6.922a2.436 2.436 0 0 0 0 3.444"/></g><g><g/><g clip-path="url(#p3r9c)"><path fill="#fff" d="M224.736 6.236h.41v-2.22h.807V3.68h-2.023v.335h.806zm1.744 0h.41V4.09h.012l.844 2.146h.266l.845-2.146h.012v2.146h.41V3.68h-.64l-.75 1.942-.763-1.942h-.646z"/></g></g><g><path fill="#fff" d="M111.613 28.614h-2.909V8.188h2.909a2.254 2.254 0 1 0 0-4.508h-10.868a2.255 2.255 0 1 0 0 4.508h2.909v20.426h-2.909a2.255 2.255 0 1 0 0 4.509h10.868a2.254 2.254 0 1 0 0-4.509"/></g></g></g></svg>