<?xml version="1.0" encoding="utf-8"?>
<!-- Generator: Adobe Illustrator 24.2.0, SVG Export Plug-In . SVG Version: 6.00 Build 0)  -->
<svg version="1.1" id="Layer_1" xmlns="http://www.w3.org/2000/svg" xmlns:xlink="http://www.w3.org/1999/xlink" x="0px" y="0px"
	 viewBox="0 0 24 24" style="enable-background:new 0 0 24 24;" xml:space="preserve">
<style type="text/css">
	.st0{fill-rule:evenodd;clip-rule:evenodd;fill:#413A93;}
	.st1{fill-rule:evenodd;clip-rule:evenodd;fill:#FFFFFF;}
</style>
<path class="st0" d="M24,4v16c0,2.2-1.8,4-4,4H4c-2.2,0-4-1.8-4-4V4c0-2.2,1.8-4,4-4h16C22.2,0,24,1.8,24,4z"/>
<path id="Left-Pipe-Pause-1_1_" class="st1" d="M10,7L10,7c0.6,0,1,0.4,1,1v8c0,0.6-0.4,1-1,1l0,0c-0.6,0-1-0.4-1-1V8
	C9,7.4,9.4,7,10,7z"/>
<path id="Left-Pipe-Pause-1_2_" class="st1" d="M14,7L14,7c0.6,0,1,0.4,1,1v8c0,0.6-0.4,1-1,1l0,0c-0.6,0-1-0.4-1-1V8
	C13,7.4,13.4,7,14,7z"/>
</svg>
