<?xml version="1.0" encoding="UTF-8"?>
<svg width="382px" height="60px" viewBox="0 0 382 60" version="1.1" xmlns="http://www.w3.org/2000/svg" xmlns:xlink="http://www.w3.org/1999/xlink">
    <title>Lexicon_Logo_Primary_2Color</title>
    <g id="Lexicon_Logo_Primary_2Color" stroke="none" stroke-width="1" fill="none" fill-rule="evenodd">
        <path d="M8.51503204,9.75148761 L8.51503204,47.4960262 L35.1992426,47.4960262 C37.2973983,47.4960262 39,49.1765569 39,51.2475139 C39,53.3204679 37.2973983,55 35.1992426,55 L4.60704002,55 C2.06274805,55 0,52.9639917 0,50.4526818 L0,9.75148761 C0,7.67953212 1.7015901,6 3.80176909,6 L4.7142746,6 C6.81344193,6 8.51503204,7.67953212 8.51503204,9.75148761" id="Fill-1" fill="#40327C"></path>
        <path d="M71.7293493,34.2514876 L56.4911969,34.2514876 L56.4911969,47.4960262 L86.2088728,47.4960262 C88.3021641,47.4960262 90,49.1765569 90,51.2475139 C90,53.3204679 88.3021641,55 86.2088728,55 L52.5941441,55 C50.056974,55 48,52.9639917 48,50.4526818 L48,10.5473182 C48,8.03600831 50.056974,6 52.5941441,6 L84.3889703,6 C86.4822617,6 88.1790887,7.67953212 88.1790887,9.75148761 C88.1790887,11.8234431 86.4822617,13.5039738 84.3889703,13.5039738 L56.4911969,13.5039738 L56.4911969,26.7485124 L71.7293493,26.7485124 C73.8226407,26.7485124 75.5194677,28.4280445 75.5194677,30.5 C75.5194677,32.5719555 73.8226407,34.2514876 71.7293493,34.2514876" id="Fill-2" fill="#40327C"></path>
        <path d="M244.831962,42.8671941 C246.478354,44.4968124 246.380805,47.2348107 244.561213,48.6667179 C239.410018,52.7197941 232.35064,56 223.70559,56 C207.621915,56 197,44.3709962 197,29.963054 C197,15.7807819 207.69657,4 223.330324,4 C230.389702,4 237.21317,6.21775866 242.458928,9.68069744 C244.538319,11.0526922 244.847889,13.987403 243.077072,15.7418389 L243.001421,15.8147323 C241.667585,17.1358015 239.590185,17.3125432 238.055278,16.2341194 C233.863648,13.2904217 228.417814,11.503034 223.480629,11.503034 C212.78406,11.503034 205.827208,19.9077502 205.827208,30.0389431 C205.827208,40.2420309 212.93337,48.496966 223.853905,48.496966 C230.073165,48.496966 235.54687,46.0046086 239.62602,42.6445195 C241.169885,41.3733774 243.409535,41.4602504 244.831962,42.8671941" id="Fill-3" fill="#40327C"></path>
        <path d="M282.388278,48.496966 C292.911002,48.496966 301.19432,40.0922498 301.19432,29.8881635 C301.19432,19.7579691 292.911002,11.503034 282.388278,11.503034 C271.942022,11.503034 263.806674,19.7579691 263.806674,29.8881635 C263.806674,40.0922498 271.942022,48.496966 282.388278,48.496966 Z M282.388278,4 C297.761226,4 310,15.5561103 310,29.8881635 C310,44.4458868 297.761226,56 282.388278,56 C267.014337,56 255,44.4458868 255,29.8881635 C255,15.5561103 267.014337,4 282.388278,4 L282.388278,4 Z" id="Fill-4" fill="#40327C"></path>
        <path d="M367,10.2018259 L367,50.4526818 C367,52.9639917 364.973069,55 362.472956,55 C360.655777,55 358.933035,54.1881929 357.769961,52.7852543 L331.441733,21.008946 L331.367177,21.008946 L331.367177,50.7981741 C331.367177,53.1177657 329.493335,55 327.183092,55 C324.872848,55 323,53.1177657 323,50.7981741 L323,10.5473182 C323,8.03600831 325.026931,6 327.527044,6 C329.344223,6 331.067959,6.81180714 332.230039,8.21474568 L358.559261,39.993051 L358.633817,39.993051 L358.633817,10.2018259 C358.633817,7.88223427 360.506665,6 362.816908,6 C365.127152,6 367,7.88223427 367,10.2018259" id="Fill-5" fill="#40327C"></path>
        <path d="M142.809134,58.7840854 L142.809134,58.7840854 C144.396955,57.1628658 144.396955,54.5341377 142.809134,52.9129181 L130.115577,39.9523677 C127.566046,37.3492108 123.433703,37.3492108 120.885174,39.9523677 L108.191618,52.9129181 C106.602794,54.5341377 106.602794,57.1628658 108.191618,58.7840854 C109.779439,60.4053049 112.353012,60.4053049 113.941836,58.7840854 L125.500376,46.9824256 L137.058916,58.7840854 C138.646737,60.4053049 141.221312,60.4053049 142.809134,58.7840854" id="Fill-6" fill="#7061FF"></path>
        <path d="M108.191618,1.21591464 L108.191618,1.21591464 C106.602794,2.83713416 106.602794,5.46586233 108.191618,7.08708185 L120.885174,20.0476323 C123.433703,22.6507892 127.566046,22.6507892 130.115577,20.0476323 L142.809134,7.08708185 C144.396955,5.46586233 144.396955,2.83713416 142.809134,1.21591464 C141.221312,-0.405304879 138.646737,-0.405304879 137.058916,1.21591464 L125.500376,13.0175744 L113.941836,1.21591464 C112.353012,-0.405304879 109.779439,-0.405304879 108.191618,1.21591464" id="Fill-7" fill="#7061FF"></path>
        <path d="M154.784085,13.1908904 L154.784085,13.1908904 C153.162866,11.6030365 150.534138,11.6030365 148.912918,13.1908904 L135.952368,25.8847049 C133.349211,28.4342873 133.349211,32.5667145 135.952368,35.1152951 L148.912918,47.8091096 C150.534138,49.3969635 153.162866,49.3969635 154.784085,47.8091096 C156.405305,46.2212558 156.405305,43.6466284 154.784085,42.0587746 L142.982426,30.5 L154.784085,18.9412254 C156.405305,17.3533716 156.405305,14.7787442 154.784085,13.1908904" id="Fill-8" fill="#40327C"></path>
        <path d="M97.2159005,47.8091096 L97.2159005,47.8091096 C98.838124,49.3969635 101.465799,49.3969635 103.088022,47.8091096 L116.048422,35.1152951 C118.650526,32.5667145 118.650526,28.4342873 116.048422,25.8847049 L103.088022,13.1908904 C101.465799,11.6030365 98.838124,11.6030365 97.2159005,13.1908904 C95.5946998,14.7787442 95.5946998,17.3533716 97.2159005,18.9412254 L109.017423,30.5 L97.2159005,42.0587746 C95.5946998,43.6466284 95.5946998,46.2212558 97.2159005,47.8091096" id="Fill-9" fill="#40327C"></path>
        <path d="M377.291484,6 L378.376977,6 L379.661393,9.0387233 L380.924605,6 L382,6 L382,10 L381.311343,10 L381.311343,6.64116405 L381.291148,6.64116405 L379.870414,10 L379.42208,10 L378.001346,6.64116405 L377.980141,6.64116405 L377.980141,10 L377.291484,10 L377.291484,6 Z M374.357119,6.52475945 L373,6.52475945 L373,6 L376.403904,6 L376.403904,6.52475945 L375.046786,6.52475945 L375.046786,10 L374.357119,10 L374.357119,6.52475945 L374.357119,6.52475945 Z" id="Fill-10" fill="#40327C"></path>
        <path d="M186.188614,47.4960262 L181.269421,47.4960262 L181.269421,13.5039738 L186.188614,13.5039738 C188.293652,13.5039738 190,11.8234431 190,9.75148761 C190,7.67953212 188.293652,6 186.188614,6 L167.811386,6 C165.706348,6 164,7.67953212 164,9.75148761 C164,11.8234431 165.706348,13.5039738 167.811386,13.5039738 L172.730579,13.5039738 L172.730579,47.4960262 L167.811386,47.4960262 C165.706348,47.4960262 164,49.1765569 164,51.2485124 C164,53.3204679 165.706348,55 167.811386,55 L186.188614,55 C188.293652,55 190,53.3204679 190,51.2485124 C190,49.1765569 188.293652,47.4960262 186.188614,47.4960262" id="Fill-11" fill="#40327C"></path>
    </g>
</svg>