<svg xmlns="http://www.w3.org/2000/svg" width="444" height="444" viewBox="0 0 444 444"><g><g opacity=".06"><path fill="#7061ff" d="M350.732 434.46c11.84-11.839 11.84-31.036 0-42.875l-94.648-94.649c-19.005-19.008-49.82-19.008-68.826 0L92.61 391.585c-11.84 11.839-11.84 31.036 0 42.876 11.842 11.842 31.039 11.842 42.878 0l86.184-86.182 86.182 86.182c11.84 11.842 31.036 11.842 42.878 0"/></g><g opacity=".06"><path fill="#7061ff" d="M92.61 8.88c-11.84 11.84-11.84 31.039 0 42.878l94.648 94.649c19.005 19.005 49.82 19.005 68.826 0l94.648-94.649c11.84-11.84 11.84-31.039 0-42.878-11.842-11.84-31.039-11.84-42.878 0l-86.182 86.184L135.488 8.88c-11.84-11.84-31.036-11.84-42.878 0"/></g><g opacity=".06"><path fill="#40327c" d="M434.46 92.61c-11.839-11.84-31.036-11.84-42.878 0l-94.646 94.648c-19.008 19.005-19.008 49.82 0 68.826l94.646 94.648c11.842 11.84 31.039 11.84 42.879 0 11.839-11.842 11.839-31.039 0-42.878l-86.182-86.184 86.182-86.184c11.839-11.84 11.839-31.037 0-42.876"/></g><g opacity=".06"><path fill="#40327c" d="M8.88 350.732c11.84 11.84 31.036 11.84 42.878 0l94.649-94.648c19.005-19.005 19.005-49.82 0-68.826L51.758 92.61c-11.842-11.84-31.039-11.84-42.878 0-11.84 11.842-11.84 31.039 0 42.878l86.18 86.184-86.18 86.182c-11.84 11.84-11.84 31.039 0 42.878"/></g></g></svg>