<?xml version="1.0" encoding="UTF-8"?>
<svg width="96px" height="96px" viewBox="0 0 96 96" version="1.1" xmlns="http://www.w3.org/2000/svg" xmlns:xlink="http://www.w3.org/1999/xlink">
    <title>Group 2</title>
    <defs>
        <path d="M58.3333333,52.7333333 L54.6466667,52.7333333 L53.34,51.4733333 C57.9133333,46.1533333 60.6666667,39.2466667 60.6666667,31.7333333 C60.6666667,14.98 47.0866667,1.4 30.3333333,1.4 C13.58,1.4 0,14.98 0,31.7333333 C0,48.4866667 13.58,62.0666667 30.3333333,62.0666667 C37.8466667,62.0666667 44.7533333,59.3133333 50.0733333,54.74 L51.3333333,56.0466667 L51.3333333,59.7333333 L74.6666667,83.02 L81.62,76.0666667 L58.3333333,52.7333333 Z M30.3333333,52.7333333 C18.7133333,52.7333333 9.33333333,43.3533333 9.33333333,31.7333333 C9.33333333,20.1133333 18.7133333,10.7333333 30.3333333,10.7333333 C41.9533333,10.7333333 51.3333333,20.1133333 51.3333333,31.7333333 C51.3333333,43.3533333 41.9533333,52.7333333 30.3333333,52.7333333 Z" id="path-1"></path>
    </defs>
    <g id="Global-Search" stroke="none" stroke-width="1" fill="none" fill-rule="evenodd">
        <g id="1.6.-Global-Search.search-results.No-Results" transform="translate(-797.000000, -421.000000)">
            <g id="Main-Content" transform="translate(276.000000, 244.000000)">
                <g id="Group-12" transform="translate(32.000000, 32.000000)">
                    <g id="Group-2" transform="translate(489.000000, 145.000000)">
                        <g id="UI/Icon/system/search">
                            <g id="Rectangle" transform="translate(6.000000, 6.000000)">
                                <mask id="mask-2" fill="white">
                                    <use xlink:href="#path-1"></use>
                                </mask>
                                <use id="Mask" fill="#000000" fill-rule="nonzero" xlink:href="#path-1"></use>
                                <rect fill="#C4CCD4" mask="url(#mask-2)" x="-6" y="-6" width="96" height="96"></rect>
                            </g>
                        </g>
                        <path d="M38.263456,25.263456 C38.8157407,25.263456 39.263456,25.7111712 39.263456,26.263456 L39.263456,34.263456 L47.263456,34.263456 C47.8157407,34.263456 48.263456,34.7111712 48.263456,35.263456 L48.263456,39.263456 C48.263456,39.8157407 47.8157407,40.263456 47.263456,40.263456 L39.262456,40.263456 L39.263456,48.263456 C39.263456,48.8157407 38.8157407,49.263456 38.263456,49.263456 L34.263456,49.263456 C33.7111712,49.263456 33.263456,48.8157407 33.263456,48.263456 L33.262456,40.262456 L25.263456,40.263456 C24.7111712,40.263456 24.263456,39.8157407 24.263456,39.263456 L24.263456,35.263456 C24.263456,34.7111712 24.7111712,34.263456 25.263456,34.263456 L33.263456,34.262456 L33.263456,26.263456 C33.263456,25.7111712 33.7111712,25.263456 34.263456,25.263456 L38.263456,25.263456 Z" id="Combined-Shape" fill="#C4CCD4" transform="translate(36.263456, 37.263456) rotate(-45.000000) translate(-36.263456, -37.263456) "></path>
                    </g>
                </g>
            </g>
        </g>
    </g>
</svg>