<svg xmlns="http://www.w3.org/2000/svg" width="101" height="16" viewBox="0 0 101 16"><g><g><g><g><g><path fill="#0072c6" d="M41.027 4.243c.893 1.028 1.34 2.483 1.34 4.366 0 1.837-.46 3.266-1.38 4.286-.921 1.021-2.18 1.53-3.777 1.53-1.495 0-2.709-.534-3.64-1.604-.93-1.072-1.395-2.485-1.395-4.243 0-1.756.477-3.175 1.431-4.256.955-1.081 2.197-1.622 3.727-1.622 1.57 0 2.801.514 3.694 1.543zm1.23 9.653c1.257-1.352 1.886-3.191 1.886-5.518 0-2.14-.614-3.874-1.84-5.2-1.228-1.325-2.846-1.988-4.854-1.988-2.177 0-3.898.683-5.162 2.048-1.265 1.366-1.897 3.196-1.897 5.489 0 2.134.62 3.867 1.861 5.2 1.241 1.332 2.893 1.998 4.955 1.998 2.109 0 3.793-.677 5.05-2.029z"/></g><g><path fill="#0072c6" d="M54.65 15.682h-1.662V14.07h-.041c-.69 1.233-1.758 1.85-3.205 1.85-2.475 0-3.712-1.445-3.712-4.336V5.5h1.654v5.826c0 2.148.838 3.222 2.515 3.222.812 0 1.48-.292 2.003-.88.524-.586.786-1.353.786-2.302V5.5h1.663v10.182z"/></g><g><path fill="#0072c6" d="M62.305 15.585c-.392.213-.91.319-1.552.319-1.819 0-2.728-.994-2.728-2.983V6.895H56.24V5.503h1.785V3.017l1.663-.527v3.013h2.616v1.392h-2.616v5.737c0 .683.118 1.17.355 1.462.237.292.63.437 1.177.437.419 0 .781-.112 1.085-.338v1.392z"/></g></g><g><g><path fill="#0072c6" d="M65.954 15.652H64.29V.08h1.664v15.572z"/></g><g><path fill="#0072c6" d="M73.277 6.307c1.075 0 1.903.356 2.482 1.068.579.711.867 1.723.867 3.037 0 1.3-.288 2.302-.867 3.006-.579.704-1.407 1.056-2.482 1.056-1.056 0-1.899-.36-2.527-1.077-.63-.719-.944-1.7-.944-2.945 0-1.293.311-2.307.934-3.042.622-.735 1.468-1.103 2.537-1.103zm3.649 8.08c.937-1.011 1.405-2.354 1.405-4.032 0-1.712-.435-3.051-1.304-4.016-.87-.966-2.08-1.449-3.63-1.449-1.623 0-2.912.497-3.866 1.49-.954.992-1.431 2.372-1.431 4.139 0 1.623.459 2.925 1.376 3.908.917.983 2.143 1.474 3.679 1.474 1.577 0 2.833-.505 3.77-1.515z"/></g><g><path fill="#0072c6" d="M84.937 6.307c1.075 0 1.903.356 2.48 1.068.58.711.869 1.723.869 3.037 0 1.3-.29 2.302-.868 3.006-.58.704-1.406 1.056-2.482 1.056-1.056 0-1.898-.36-2.527-1.077-.629-.719-.944-1.7-.944-2.945 0-1.293.311-2.307.934-3.042.622-.735 1.469-1.103 2.538-1.103zm-.122 9.594c1.576 0 2.833-.504 3.77-1.515.938-1.01 1.407-2.353 1.407-4.031 0-1.712-.435-3.051-1.305-4.016-.869-.966-2.08-1.449-3.628-1.449-1.625 0-2.914.497-3.868 1.49-.954.992-1.431 2.372-1.431 4.139 0 1.623.459 2.925 1.376 3.908.917.983 2.143 1.474 3.679 1.474z"/></g><g><path fill="#0072c6" d="M100.758 15.652h-2.335l-4.588-5.054h-.04v5.054H92.13V.08h1.664v9.871h.041L98.2 5.134h2.182l-4.821 5.074 5.197 5.444z"/></g></g></g><g><g><path fill="#0072c6" d="M4.745 6.21c-.341 0-.613.159-.814.476-.2.317-.301.737-.301 1.259 0 .53.1.95.301 1.257.201.309.464.462.79.462.336 0 .602-.15.799-.45.196-.299.295-.715.295-1.247 0-.555-.095-.986-.286-1.295-.191-.308-.452-.462-.784-.462z"/></g><g><path fill="#0072c6" d="M6.252 9.93c-.395.514-.91.772-1.545.772-.62 0-1.123-.25-1.513-.748-.39-.5-.585-1.149-.585-1.95 0-.846.198-1.53.594-2.052.396-.523.92-.784 1.573-.784.617 0 1.116.25 1.496.75.381.5.572 1.159.572 1.977 0 .842-.197 1.52-.592 2.034zM0 1.79v12.164l9.343 1.94V0z"/></g><g><path fill="#0072c6" d="M9.93 3.37v3.11l1.097.683a.283.283 0 0 0 .12 0l4.722-3.152c0-.374-.352-.641-.55-.641z"/></g><g><path fill="#0072c6" d="M9.93 7.642l1.002.681c.14.103.31 0 .31 0-.169.103 4.628-3.053 4.628-3.053v5.715c0 .622-.402.883-.854.883H9.93V7.642z"/></g></g></g></g></svg>