<?xml version="1.0" encoding="UTF-8"?>
<svg width="12px" height="12px" viewBox="0 0 12 12" version="1.1" xmlns="http://www.w3.org/2000/svg" xmlns:xlink="http://www.w3.org/1999/xlink">
    <title>UI/Icon/system/dialpad</title>
    <defs>
        <path d="M1.25,9.5 C1.9375,9.5 2.5,10.0625 2.5,10.75 C2.5,11.4375 1.9375,12 1.25,12 C0.5625,12 0,11.4375 0,10.75 C0,10.0625 0.5625,9.5 1.25,9.5 Z M6,9.5 C6.6875,9.5 7.25,10.0625 7.25,10.75 C7.25,11.4375 6.6875,12 6,12 C5.3125,12 4.75,11.4375 4.75,10.75 C4.75,10.0625 5.3125,9.5 6,9.5 Z M10.75,9.5 C11.4375,9.5 12,10.0625 12,10.75 C12,11.4375 11.4375,12 10.75,12 C10.0625,12 9.5,11.4375 9.5,10.75 C9.5,10.0625 10.0625,9.5 10.75,9.5 Z M1.25,4.75 C1.9375,4.75 2.5,5.3125 2.5,6 C2.5,6.6875 1.9375,7.25 1.25,7.25 C0.5625,7.25 0,6.6875 0,6 C0,5.3125 0.5625,4.75 1.25,4.75 Z M10.75,4.75 C11.4375,4.75 12,5.3125 12,6 C12,6.6875 11.4375,7.25 10.75,7.25 C10.0625,7.25 9.5,6.6875 9.5,6 C9.5,5.3125 10.0625,4.75 10.75,4.75 Z M6,4.75 C6.6875,4.75 7.25,5.3125 7.25,6 C7.25,6.6875 6.6875,7.25 6,7.25 C5.3125,7.25 4.75,6.6875 4.75,6 C4.75,5.3125 5.3125,4.75 6,4.75 Z M1.25,0 C1.9375,0 2.5,0.5625 2.5,1.25 C2.5,1.9375 1.9375,2.5 1.25,2.5 C0.5625,2.5 0,1.9375 0,1.25 C0,0.5625 0.5625,0 1.25,0 Z M10.75,0 C11.4375,0 12,0.5625 12,1.25 C12,1.9375 11.4375,2.5 10.75,2.5 C10.0625,2.5 9.5,1.9375 9.5,1.25 C9.5,0.5625 10.0625,0 10.75,0 Z M6,0 C6.6875,0 7.25,0.5625 7.25,1.25 C7.25,1.9375 6.6875,2.5 6,2.5 C5.3125,2.5 4.75,1.9375 4.75,1.25 C4.75,0.5625 5.3125,0 6,0 Z" id="path-1"></path>
    </defs>
    <g id="Dashboard" stroke="none" stroke-width="1" fill="none" fill-rule="evenodd">
        <g id="2.2.0.Dashboard.User.WidgetMove" transform="translate(-1131.000000, -1362.000000)">
            <g id="Group-14" transform="translate(858.000000, 1175.000000)">
                <g id="Group-8" transform="translate(236.000000, 185.000000)">
                    <g id="Group" transform="translate(35.000000, 0.000000)">
                        <g id="Rectangle" transform="translate(2.000000, 2.000000)">
                            <mask id="mask-2" fill="white">
                                <use xlink:href="#path-1"></use>
                            </mask>
                            <use id="Mask" fill="#000000" fill-rule="nonzero" xlink:href="#path-1"></use>
                            <rect fill="#4E5F7B" mask="url(#mask-2)" x="-2" y="-2" width="16" height="16"></rect>
                        </g>
                    </g>
                </g>
            </g>
        </g>
    </g>
</svg>