<?xml version="1.0" encoding="UTF-8"?>
<svg width="12px" height="14px" viewBox="0 0 12 14" version="1.1" xmlns="http://www.w3.org/2000/svg" xmlns:xlink="http://www.w3.org/1999/xlink">
    <title>UI/icon/add</title>
    <defs>
        <path d="M11,11.5 C11.5522847,11.5 12,11.9477153 12,12.5 C12,13.0522847 11.5522847,13.5 11,13.5 L1,13.5 C0.44771525,13.5 6.76353751e-17,13.0522847 0,12.5 C-6.76353751e-17,11.9477153 0.44771525,11.5 1,11.5 L11,11.5 Z M6,0.5 L9,4.5 L7,4.5 L7,9.5 L5,9.5 L5,4.5 L3,4.5 L6,0.5 Z" id="path-1"></path>
    </defs>
    <g id="Firm-Settings" stroke="none" stroke-width="1" fill="none" fill-rule="evenodd">
        <g id="10.0-TA-Settings.General" transform="translate(-729.000000, -1665.000000)">
            <g id="Group-8" transform="translate(276.000000, 264.000000)">
                <g id="Group-3" transform="translate(32.000000, 32.000000)">
                    <g id="Group-7-Copy" transform="translate(0.000000, 1052.000000)">
                        <g id="Group-6" transform="translate(0.000000, 112.000000)">
                            <g id="Group-10" transform="translate(419.000000, 202.000000)">
                                <g id="button-/-04-text-/-02-text-and-icon-/-01-enabled" transform="translate(0.000000, 2.000000)">
                                    <g id="Rectangle" transform="translate(2.000000, 1.000000)">
                                        <mask id="mask-2" fill="white">
                                            <use xlink:href="#path-1"></use>
                                        </mask>
                                        <use id="Mask" fill="#D8D8D8" xlink:href="#path-1"></use>
                                        <rect fill="#413A93" mask="url(#mask-2)" x="-1" y="0" width="14" height="14"></rect>
                                    </g>
                                </g>
                            </g>
                        </g>
                    </g>
                </g>
            </g>
        </g>
    </g>
</svg>