<?xml version="1.0" encoding="UTF-8"?>
<svg width="16px" height="16px" viewBox="0 0 16 16" version="1.1" xmlns="http://www.w3.org/2000/svg" xmlns:xlink="http://www.w3.org/1999/xlink">
    <title>UI/Icon/dms/excel</title>
    <g id="UI/Icon/dms/excel" stroke="none" stroke-width="1" fill="none" fill-rule="evenodd">
        <g id="Group-2" transform="translate(1.000000, 2.000000)" fill-rule="nonzero">
            <path d="M8.44298246,-8.47078399e-14 L3.96617544,-8.47078399e-14 C3.64095175,-8.47078399e-14 3.37719298,0.269408134 3.37719298,0.601597676 L3.37719298,3.10561002 L8.44298246,3.10561002 L8.44298246,-8.47078399e-14 Z" id="Path" fill="#169154"></path>
            <path d="M3.37719298,9.33235294 L3.37719298,11.816703 C3.37719298,12.1488925 3.64095175,12.4183007 3.96583772,12.4183007 L8.44298246,12.4183007 L8.44298246,9.33235294 L3.37719298,9.33235294 Z" id="Path" fill="#18482A"></path>
            <polygon id="Path" fill="#0C8045" points="3.37719298 3.10561002 8.44298246 3.10561002 8.44298246 6.21087509 3.37719298 6.21087509"></polygon>
            <polygon id="Path" fill="#17472A" points="3.37719298 6.21087509 8.44298246 6.21087509 8.44298246 9.33269789 3.37719298 9.33269789"></polygon>
            <path d="M12.9197895,-8.47078399e-14 L8.44298246,-8.47078399e-14 L8.44298246,3.10561002 L13.5087719,3.10561002 L13.5087719,0.601597676 C13.5087719,0.269408134 13.2450132,-8.47078399e-14 12.9197895,-8.47078399e-14 Z" id="Path" fill="#29C27F"></path>
            <path d="M8.44298246,9.33235294 L8.44298246,12.4183007 L12.9201272,12.4183007 C13.2450132,12.4183007 13.5087719,12.1488925 13.5087719,11.8170479 L13.5087719,9.33269789 L8.44298246,9.33269789 L8.44298246,9.33235294 Z" id="Path" fill="#27663F"></path>
            <polygon id="Path" fill="#19AC65" points="8.44298246 3.10561002 13.5087719 3.10561002 13.5087719 6.21087509 8.44298246 6.21087509"></polygon>
            <polygon id="Path" fill="#129652" points="8.44298246 6.21087509 13.5087719 6.21087509 13.5087719 9.33269789 8.44298246 9.33269789"></polygon>
            <path d="M6.18667982,9.65867829 L0.56770614,9.65867829 C0.254302632,9.65867829 0,9.39892883 0,9.07881264 L0,3.33948802 C0,3.01937182 0.254302632,2.75962237 0.56770614,2.75962237 L6.18667982,2.75962237 C6.50008333,2.75962237 6.75438596,3.01937182 6.75438596,3.33948802 L6.75438596,9.07881264 C6.75438596,9.39892883 6.50008333,9.65867829 6.18667982,9.65867829 Z" id="Path" fill="#0C7238"></path>
            <polygon id="Path" fill="#FFFFFF" points="1.96113596 4.48438635 2.76693421 4.48438635 3.42075877 5.77933914 4.11173246 4.48438635 4.86450877 4.48438635 3.82737281 6.20915033 4.88814912 7.93391431 4.09417105 7.93391431 3.38158333 6.57824982 2.67203509 7.93391431 1.86623684 7.93391431 2.94457456 6.20294118"></polygon>
        </g>
    </g>
</svg>