<?xml version="1.0" encoding="UTF-8"?>
<svg width="16px" height="16px" viewBox="0 0 16 16" version="1.1" xmlns="http://www.w3.org/2000/svg" xmlns:xlink="http://www.w3.org/1999/xlink">
    <title>UI/Icon/dms/pdf</title>
    <defs>
        <path d="M6.875,0 L11,4.2 L11,12.6 C11,13.3247059 10.4519031,13.9253979 9.75693059,13.9935599 L9.625,14 L1.368125,14 C0.656360294,14 0.0724848616,13.4419377 0.00625648789,12.7343293 L0,12.6 L0.006875,1.4 C0.006875,0.675294118 0.54888192,0.0746020761 1.24313798,0.00644005699 L1.375,0 L6.875,0 Z M5.23773225,4.5 C5.17349502,4.5 4.99882897,4.52886514 4.92947429,4.55160325 C4.75480828,4.60987811 4.66067449,4.74453673 4.58552903,4.91990605 C4.37127023,5.42055279 4.66565724,6.27384437 4.96812438,6.9316155 C4.70942474,7.95905098 4.27538572,9.1889509 3.81926098,10.1871128 C2.6697242,10.7129484 2.05926844,11.2292532 2.00418872,11.7218667 C1.98412301,11.9011845 2.02667849,12.1643747 2.34234323,12.4012867 C2.42880088,12.4658248 2.53007216,12.5 2.63565285,12.5 C2.90108597,12.5 3.16921247,12.2972633 3.47935574,11.8615631 C3.70573478,11.5440465 3.94854346,11.1113418 4.20212565,10.5742052 C5.01431594,10.2196542 6.01894859,9.89941453 6.87935047,9.7196882 C7.35836904,10.1790796 7.78742527,10.4116345 8.15668839,10.4116345 C8.42845093,10.4116345 8.66089009,10.2870515 8.82976532,10.0510926 C9.00537403,9.80560281 9.04564014,9.58516577 8.9481396,9.39686159 C8.83097733,9.16948054 8.54278512,9.0590578 8.06834536,9.0590578 C7.78957998,9.0590578 7.44752007,9.09541151 7.04970707,9.16702974 C6.49460041,8.57910679 5.91579196,7.72023284 5.50707076,6.87756142 C5.55029958,6.6963374 5.59083502,6.51443258 5.62665706,6.3317108 C5.67567667,6.0830894 5.71823215,5.83160869 5.73924056,5.57876643 C5.7609223,5.31843557 5.76024896,5.04857375 5.6232903,4.8168357 C5.5497609,4.69198038 5.39691129,4.5 5.23773225,4.5 Z M3.44312972,10.9479542 C2.95158695,11.8538021 2.68776987,11.973892 2.64238633,11.9883246 C2.50057962,11.8800803 2.50879443,11.8068282 2.5118918,11.77878 C2.53074553,11.6102185 2.79483193,11.3113554 3.44312972,10.9479542 Z M5.31328169,7.60953773 C5.65372557,8.22060724 6.06285076,8.81356797 6.47211063,9.28834502 C5.82515953,9.44002313 5.13578763,9.65446932 4.50216875,9.89995915 C4.80988799,9.16771051 5.09619485,8.3588059 5.31328169,7.60953773 Z M8.12800381,9.56991626 C8.39761168,9.56991626 8.44730463,9.60953772 8.48433868,9.62955271 C8.4777399,9.65079309 8.46009822,9.69136769 8.41471465,9.75481651 C8.3212542,9.88525427 8.1188463,9.88824969 8.04801029,9.88824969 C7.88600317,9.88824969 7.825806,9.79225951 7.57868791,9.60245763 C7.78230782,9.57658791 7.97461556,9.56991626 8.12800381,9.56991626 Z M5.12905415,5.04680373 C5.14225175,5.04271902 5.44620026,5.38025052 5.15827737,6.02059364 C4.72585438,5.57876643 5.09929225,5.05660698 5.12905415,5.04680373 Z M6.79861111,1.05 L6.79861111,4.26363636 L9.96875,4.26363636 L6.79861111,1.05 Z" id="path-1"></path>
    </defs>
    <g id="UI/Icon/dms/pdf" stroke="none" stroke-width="1" fill="none" fill-rule="evenodd">
        <g id="Rectangle" transform="translate(2.500000, 1.000000)">
            <mask id="mask-2" fill="white">
                <use xlink:href="#path-1"></use>
            </mask>
            <use id="Mask" fill="#000000" fill-rule="nonzero" xlink:href="#path-1"></use>
            <rect fill="#4E5F7B" mask="url(#mask-2)" x="-2.5" y="-1" width="16" height="16"></rect>
        </g>
    </g>
</svg>