<?xml version="1.0" encoding="UTF-8"?>
<svg width="12px" height="12px" viewBox="0 0 12 12" version="1.1" xmlns="http://www.w3.org/2000/svg" xmlns:xlink="http://www.w3.org/1999/xlink">
    <!-- Generator: Sketch 61.1 (89650) - https://sketch.com -->
    <title>PDF Filled</title>
    <desc>Created with Sketch.</desc>
    <defs>
        <path d="M10.5,0 L1.5,0 C0.675,0 0,0.675 0,1.5 L0,10.5 C0,11.325 0.675,12 1.5,12 L10.5,12 C11.325,12 12,11.325 12,10.5 L12,1.5 C12,0.675 11.325,0 10.5,0 Z M4.125,5.625 C4.125,6.2475 3.6225,6.75 3,6.75 L2.25,6.75 L2.25,8.25 L1.125,8.25 L1.125,3.75 L3,3.75 C3.6225,3.75 4.125,4.2525 4.125,4.875 L4.125,5.625 Z M7.875,7.125 C7.875,7.7475 7.3725,8.25 6.75,8.25 L4.875,8.25 L4.875,3.75 L6.75,3.75 C7.3725,3.75 7.875,4.2525 7.875,4.875 L7.875,7.125 Z M10.875,4.875 L9.75,4.875 L9.75,5.625 L10.875,5.625 L10.875,6.75 L9.75,6.75 L9.75,8.25 L8.625,8.25 L8.625,3.75 L10.875,3.75 L10.875,4.875 Z M2.25,5.625 L3,5.625 L3,4.875 L2.25,4.875 L2.25,5.625 Z M6,7.125 L6.75,7.125 L6.75,4.875 L6,4.875 L6,7.125 Z" id="path-1"></path>
    </defs>
    <g id="Iconography" stroke="none" stroke-width="1" fill="none" fill-rule="evenodd">
        <g id="5.0-Iconography" transform="translate(-127.000000, -321.000000)">
            <g id="System-Icons" transform="translate(60.000000, 129.000000)">
                <g id="Group-4" transform="translate(0.000000, 27.000000)">
                    <g id="Group-6" transform="translate(0.000000, 147.000000)">
                        <g id="Menu" transform="translate(49.000000, 0.000000)">
                            <g id="UI/Icon/system/pdf-filled" transform="translate(16.000000, 16.000000)">
                                <g id="Rectangle" transform="translate(2.000000, 2.000000)">
                                    <mask id="mask-2" fill="white">
                                        <use xlink:href="#path-1"></use>
                                    </mask>
                                    <use id="Mask" fill="#000000" fill-rule="nonzero" xlink:href="#path-1"></use>
                                    <rect fill="#4E5F7B" mask="url(#mask-2)" x="-2" y="-2" width="16" height="16"></rect>
                                </g>
                            </g>
                        </g>
                    </g>
                </g>
            </g>
        </g>
    </g>
</svg>