<?xml version="1.0" encoding="UTF-8"?>
<svg width="16px" height="16px" viewBox="0 0 16 16" version="1.1" xmlns="http://www.w3.org/2000/svg" xmlns:xlink="http://www.w3.org/1999/xlink">
    <title>UI/Icon/dms/video</title>
    <defs>
        <path d="M7.375,0 L11.5,4.2 L11.5,12.6 C11.5,13.3247059 10.9519031,13.9253979 10.2569306,13.9935599 L10.125,14 L1.868125,14 C1.15636029,14 0.572484862,13.4419377 0.506256488,12.7343293 L0.5,12.6 L0.506875,1.4 C0.506875,0.675294118 1.04888192,0.0746020761 1.74313798,0.00644005699 L1.875,0 L7.375,0 Z M8.74599265,5.51923445 L3.67352888,5.51923445 C3.41739965,5.51923445 3.20976077,5.72687334 3.20976077,5.98300257 L3.20976077,11.6424229 C3.20976077,11.8985521 3.41739965,12.106191 3.67352888,12.106191 L8.74599265,12.106191 C9.00212188,12.106191 9.20976077,11.8985521 9.20976077,11.6424229 L9.20976077,5.98300257 C9.20976077,5.72687334 9.00212188,5.51923445 8.74599265,5.51923445 Z M4.53826318,10.8090895 L4.53826318,11.6230992 L3.69285255,11.6230992 L3.69285255,10.8090895 L4.53826318,10.8090895 Z M7.38850473,9.06512817 L7.38850473,11.6230992 L5.02135497,11.6206837 L5.02135497,9.06512817 L7.38850473,9.06512817 Z M8.7194226,10.8090895 L8.7194226,11.6230992 L7.87159651,11.6206837 L7.87159651,10.8090895 L8.7194226,10.8090895 Z M4.53826318,9.63759194 L4.53826318,10.3235823 L3.69285255,10.3235823 L3.69285255,9.6400074 L4.53826318,9.63759194 Z M8.7194226,9.63759194 L8.7194226,10.3235823 L7.88125835,10.3235823 L7.87159651,9.63759194 L8.7194226,9.63759194 Z M4.53826318,8.46850981 L4.53826318,9.15450015 L3.69285255,9.15450015 L3.69285255,8.46850981 L4.53826318,8.46850981 Z M8.7194226,8.46850981 L8.7194226,9.15450015 L7.87159651,9.15450015 L7.87159651,8.46850981 L8.7194226,8.46850981 Z M7.38850473,5.99991078 L7.38850473,8.58203638 L5.02135497,8.58203638 L5.02135497,6.00232624 L7.38850473,5.99991078 Z M4.53826318,7.29942769 L4.53826318,7.98541802 L3.69285255,7.98541802 L3.69285255,7.29942769 L4.53826318,7.29942769 Z M8.7194226,7.29942769 L8.7194226,7.98541802 L7.87159651,7.98541802 L7.87159651,7.29942769 L8.7194226,7.29942769 Z M4.53826318,5.99991078 L4.53826318,6.81392044 L3.69285255,6.81392044 L3.69285255,6.00232624 L4.53826318,5.99991078 Z M8.72908444,6.00232624 L8.7194226,6.81392044 L7.88125835,6.81392044 L7.88125835,6.00232624 L8.72908444,6.00232624 Z M7.29861111,1.05 L7.29861111,4.26363636 L10.46875,4.26363636 L7.29861111,1.05 Z" id="path-1"></path>
    </defs>
    <g id="UI/Icon/dms/video" stroke="none" stroke-width="1" fill="none" fill-rule="evenodd">
        <g id="Rectangle" transform="translate(2.000000, 1.000000)">
            <mask id="mask-2" fill="white">
                <use xlink:href="#path-1"></use>
            </mask>
            <use id="Mask" fill="#000000" fill-rule="nonzero" xlink:href="#path-1"></use>
            <rect fill="#4E5F7B" mask="url(#mask-2)" x="-2" y="-1" width="16" height="16"></rect>
        </g>
    </g>
</svg>