<?xml version="1.0" encoding="UTF-8"?>
<svg width="16px" height="16px" viewBox="0 0 16 16" version="1.1" xmlns="http://www.w3.org/2000/svg" xmlns:xlink="http://www.w3.org/1999/xlink">
    <title>UI/Icon/dms/audio</title>
    <defs>
        <path d="M7.375,0 L11.5,4.2 L11.5,12.6 C11.5,13.3247059 10.9519031,13.9253979 10.2569306,13.9935599 L10.125,14 L1.868125,14 C1.15636029,14 0.572484862,13.4419377 0.506256488,12.7343293 L0.5,12.6 L0.506875,1.4 C0.506875,0.675294118 1.04888192,0.0746020761 1.74313798,0.00644005699 L1.875,0 L7.375,0 Z M8.27174108,6.07417067 L8.18160831,6.07848421 L4.38160831,6.60319278 C4.13424048,6.63734963 3.95,6.84877837 3.95,7.09849327 L3.95,7.09849327 L3.94988196,9.51128371 C3.85608164,9.48019162 3.75514652,9.46327415 3.65,9.46327415 C3.15294373,9.46327415 2.75,9.84133061 2.75,10.3076869 C2.75,10.7740432 3.15294373,11.1520996 3.65,11.1520996 L3.65,11.1520996 L3.76289409,11.1455204 C4.20666333,11.0934146 4.55,10.7381696 4.55,10.3076869 L4.55,10.3076869 L4.549,7.77172396 L8.149,7.29072396 L8.14988196,8.94834189 C8.05608164,8.9172498 7.95514652,8.90033233 7.85,8.90033233 C7.35294373,8.90033233 6.95,9.27838879 6.95,9.74474506 C6.95,10.2111013 7.35294373,10.5891578 7.85,10.5891578 C8.34705627,10.5891578 8.75,10.2111013 8.75,9.74474506 L8.75,9.74474506 L8.75,6.5737847 C8.75,6.5509068 8.74842981,6.52805588 8.74530049,6.50539301 C8.70752881,6.2318461 8.45515522,6.04071252 8.18160831,6.07848421 Z M7.29861111,1.05 L7.29861111,4.26363636 L10.46875,4.26363636 L7.29861111,1.05 Z" id="path-1"></path>
    </defs>
    <g id="UI/Icon/dms/audio" stroke="none" stroke-width="1" fill="none" fill-rule="evenodd">
        <g id="Rectangle" transform="translate(2.000000, 1.000000)">
            <mask id="mask-2" fill="white">
                <use xlink:href="#path-1"></use>
            </mask>
            <use id="Mask" fill="#000000" fill-rule="nonzero" xlink:href="#path-1"></use>
            <rect fill="#4E5F7B" mask="url(#mask-2)" x="-2" y="-1" width="16" height="16"></rect>
        </g>
    </g>
</svg>