<?xml version="1.0" encoding="UTF-8"?>
<svg width="114px" height="114px" viewBox="0 0 114 114" version="1.1" xmlns="http://www.w3.org/2000/svg" xmlns:xlink="http://www.w3.org/1999/xlink">
    <title>Group 13</title>
    <g id="***View-Calendar---FIlter/Search-Redesign***" stroke="none" stroke-width="1" fill="none" fill-rule="evenodd" fill-opacity="0.9">
        <g id="1.0.0-View-Calendar.Default-Copy" transform="translate(-949.000000, -569.000000)" fill="#cc0033">
            <g id="Group-3" transform="translate(276.000000, 184.000000)">
                <g id="Calendar/Week/Event-Block/2h/Upcoming" transform="translate(673.000000, 385.000000)">
                    <g id="Group-13" transform="translate(-0.000000, -0.000000)">
                        <polygon id="Path" points="9.00195313 3.0889022e-13 11.2926025 3.0889022e-13 1.80389037e-12 10.4801025 1.80389037e-12 8.43426702"></polygon>
                        <polygon id="Path" points="25.0229492 7.60280727e-13 27.1914063 7.60280727e-13 1.80833126e-12 31.5786133 1.80833126e-12 28.9036594"></polygon>
                        <polygon id="Path" points="40.822998 4.54747351e-13 43 4.54747351e-13 1.8189894e-12 55.5 1.8189894e-12 52.7446414"></polygon>
                        <polygon id="Path" points="56.8044434 5.18696197e-13 59.0944824 1.0723772e-12 1.81543669e-12 78.6474609 1.81543669e-12 75.8270661"></polygon>
                        <polygon id="Path" points="73.7355957 1.49213975e-13 75.7558594 7.99323173e-13 1.00186526e-12 104.1875 1.00186526e-12 100.88323"></polygon>
                        <polygon id="Path" points="89.9771729 0 92.2155762 0 10.9890137 114 8.65673828 114"></polygon>
                        <polygon id="Path" points="105.477905 4.54747351e-13 107.702637 4.54747351e-13 28.9776611 114 26.6776123 114"></polygon>
                        <polygon id="Path" points="114 9.34509277 114 13.0535889 45.3348389 114 42.973877 114"></polygon>
                        <polygon id="Path" points="114 31.1157227 114 34.5845947 60.2928467 114 57.9771729 114"></polygon>
                        <polygon id="Path" points="114 54.3211636 114 57.5 76.2928467 114 73.9771729 114"></polygon>
                        <polygon id="Path" points="114 77.0566406 114 80.3840053 92.2928467 114 89.9771729 114"></polygon>
                        <polygon id="Path" points="114 101.724609 114 105.007528 108.292847 114 105.977173 114"></polygon>
                    </g>
                </g>
            </g>
        </g>
    </g>
</svg>