<?xml version="1.0" encoding="UTF-8"?>
<svg width="16px" height="16px" viewBox="0 0 16 16" version="1.1" xmlns="http://www.w3.org/2000/svg" xmlns:xlink="http://www.w3.org/1999/xlink">
    <!-- Generator: Sketch 61.2 (89653) - https://sketch.com -->
    <title>UI/Icon/system/g-calendar</title>
    <desc>Created with Sketch.</desc>
    <g id="UI/Icon/system/g-calendar" stroke="none" stroke-width="1" fill="none" fill-rule="evenodd">
        <g id="Group-8" fill-rule="nonzero">
            <g id="Group-5" transform="translate(0.240000, 0.240000)">
                <path d="M4.08151819,0.561632472 C4.19933559,0.536529001 4.32201748,0.547342309 4.43357108,0.592662775 C4.59407517,0.663074129 4.71122639,0.805460383 4.7489518,0.975978283 C4.76876735,1.09474142 4.75281694,1.21668628 4.70311158,1.32643818 C4.58989476,1.55037537 4.33837183,1.66917658 4.09251985,1.61483746 C3.84432608,1.55555359 3.66970054,1.33410243 3.67078475,1.08002106 C3.67589756,0.835253596 3.84359378,0.623600802 4.08151819,0.561632472 L4.08151819,0.561632472 Z" id="Path" fill="#FFFFFF"></path>
                <path d="M11.0510653,0.561632472 C11.1698113,0.536834963 11.2933429,0.548941085 11.4049518,0.596313399 C11.5876624,0.68080788 11.7093564,0.857971259 11.7221661,1.05811732 C11.7261887,1.21195986 11.6672941,1.36083587 11.5589749,1.47063782 C11.4342023,1.59787877 11.2540619,1.65506679 11.0783265,1.62322621 C10.9025911,1.59138563 10.7542445,1.47468075 10.6825099,1.31183568 C10.6389501,1.20425709 10.6250244,1.08705404 10.6421705,0.972327659 C10.6888319,0.769112148 10.8473508,0.609895222 11.0510653,0.561632472 L11.0510653,0.561632472 Z" id="Path" fill="#FFFFFF"></path>
                <path d="M10.3524603,8.76275903 L11.1794179,8.76275903 C11.1794179,9.8579462 11.1794179,10.9531334 11.1794179,12.0355433 L10.3561276,12.0355433 C10.3524603,10.9385309 10.3561276,9.85429557 10.3524603,8.76275903 Z" id="Path" fill="#FFFFFF"></path>
                <path d="M1.41728458,0.0852260549 C1.59240981,0.0181486394 1.78017935,-0.00988934578 1.96736723,0.00308701745 L13.5521077,0.00308701745 C13.8487182,0.00299473129 14.1327998,0.122131033 14.33993,0.333478809 C14.5470602,0.544826585 14.6596883,0.830477769 14.652273,1.12565386 C14.652273,1.49071625 14.652273,1.87220645 14.652273,2.2463954 C14.52672,2.20336033 14.3944627,2.18296248 14.2617143,2.1861601 L1.15324491,2.1861601 C1.01387208,2.18253647 0.874918356,2.20291471 0.742516539,2.2463954 C0.742516539,1.85760395 0.742516539,1.47063782 0.742516539,1.08184638 C0.747887157,0.645481019 1.01298659,0.253933906 1.41728458,0.0852260549 L1.41728458,0.0852260549 Z M4.0833518,0.561632472 C3.84333018,0.622400996 3.67369821,0.835349462 3.66895114,1.08184638 C3.66786693,1.33592774 3.84249247,1.5573789 4.09068624,1.61666278 C4.33653822,1.67100189 4.58806115,1.55220069 4.70127797,1.32826349 C4.75098333,1.21851159 4.76693374,1.09656673 4.74711819,0.977803595 C4.70939278,0.807285695 4.59224156,0.664899441 4.43173748,0.594488087 C4.32092316,0.548925985 4.19893219,0.537481474 4.08151819,0.561632472 L4.0833518,0.561632472 Z M11.0510653,0.561632472 C10.8475612,0.610797986 10.6897516,0.770724122 10.6440041,0.974152971 C10.626858,1.08887935 10.6407837,1.2060824 10.6843435,1.31366099 C10.7560781,1.47650606 10.9044247,1.59321094 11.0801601,1.62505152 C11.2558955,1.65689211 11.4360359,1.59970408 11.5608086,1.47246313 C11.6691277,1.36266118 11.7280223,1.21378517 11.7239997,1.05994263 C11.71119,0.859796571 11.589496,0.682633192 11.4067854,0.598138711 C11.2948231,0.54977393 11.1705848,0.537023817 11.0510653,0.561632472 L11.0510653,0.561632472 Z" id="Shape" fill="#C7C7C7"></path>
                <path d="M10.986889,5.48997472 C11.0493215,5.4687059 11.1159249,5.462451 11.1812515,5.4717216 C11.1812515,6.56690876 11.1812515,7.66209593 11.1812515,8.7572831 L11.1812515,8.76640966 L10.3542939,8.76640966 L10.3542939,8.74815654 C10.3542939,7.99126052 10.3542939,7.23497294 10.3542939,6.47929379 C9.80421131,6.66182499 9.25412866,6.84435618 8.70404602,7.02688737 C8.70404602,6.78047026 8.70404602,6.53222784 8.70404602,6.28581073 C9.46316007,6.02114049 10.2186069,5.75829557 10.986889,5.48997472 Z" id="Path" fill="#C7C7C7"></path>
                <path d="M4.26121186,5.88241679 C4.61058209,5.6225507 5.0318085,5.47597974 5.46772646,5.46259504 C5.8993619,5.43492922 6.33012316,5.52853422 6.71091323,5.73274121 C7.00762552,5.90379766 7.23860627,6.16841627 7.36734519,6.48476973 C7.49221988,6.80067164 7.53632426,7.14250198 7.49569781,7.47956474 C7.38755243,8.01370724 7.01788975,8.45844748 6.51104987,8.66419219 C6.58050753,8.68505344 6.64799745,8.71192725 6.71274684,8.74450591 C6.67048789,8.7527771 6.62745073,8.75644931 6.58439423,8.75545778 C6.01047467,8.75545778 5.43655511,8.75545778 4.86263555,8.75545778 C4.86263555,8.63133657 4.86263555,8.50721536 4.86263555,8.3903954 C5.27703114,8.38126884 5.71343004,8.43055226 6.1003215,8.24984638 C6.42281212,8.11258523 6.65006979,7.81786441 6.69991158,7.47226349 C6.75752084,7.14126835 6.69235787,6.80071076 6.5165507,6.51397472 C6.35445535,6.3025585 6.11275054,6.16610233 5.84728348,6.13613515 C5.49286862,6.06907433 5.12611087,6.13961209 4.82229615,6.33326884 C4.53569351,6.54783791 4.3737986,6.88928357 4.38956447,7.24592481 C4.1236912,7.24592481 3.85781792,7.24592481 3.59194464,7.24592481 C3.59373672,7.10011481 3.61219154,6.95498143 3.6469529,6.81332588 C3.7386772,6.44219855 3.95549264,6.11361487 4.26121186,5.88241679 Z" id="Path" fill="#C7C7C7"></path>
                <path d="M0.742516539,2.2463954 C0.874918356,2.20291471 1.01387208,2.18253647 1.15324491,2.1861601 L14.2617143,2.1861601 C14.3944627,2.18296248 14.52672,2.20336033 14.652273,2.2463954 C15.041156,2.38381813 15.3200853,2.72632131 15.3747149,3.133497 C15.3030637,2.85152123 15.1276937,2.60659304 14.8833077,2.44717971 C14.7043148,2.33071284 14.4957039,2.26739973 14.281884,2.26464851 C9.89833656,2.26464851 5.51478908,2.26464851 1.13124161,2.26464851 C0.795756844,2.25780097 0.475074566,2.40199154 0.258443812,2.65709058 C0.167453105,2.77267367 0.0910905155,2.89896007 0.031076319,3.03310484 C0.116718712,2.66661894 0.385357134,2.369559 0.742516539,2.2463954 Z" id="Path" fill="#4483EF"></path>
                <path d="M10.3359579,8.74815654 L10.3506267,8.74815654 L10.3506267,8.7572831 C10.3506267,9.85247026 10.3506267,10.9476574 10.3506267,12.0300674 L11.1739171,12.0300674 C11.1739171,10.9348802 11.1739171,9.83969308 11.1739171,8.7572831 L11.1739171,8.74815654 L11.1867524,8.74815654 C11.308901,8.75482935 11.4313254,8.75482935 11.5534741,8.74815654 C12.5864071,8.74815654 13.6187288,8.74815654 14.6504394,8.74815654 C14.769624,10.4676004 14.8814741,12.1870442 15.0006587,13.9046628 C15.0278084,14.1014303 15.0216104,14.3013376 14.9823226,14.4960638 L14.9823226,14.4960638 C14.936588,14.5560002 14.8978342,14.6209099 14.8668052,14.6895469 C14.6689405,15.0117178 14.3183095,15.2096936 13.9389992,15.2134114 C9.81949138,15.2134114 5.70059478,15.2134114 1.58230938,15.2134114 C1.45269728,15.2212442 1.32261344,15.2120384 1.19541792,15.1860318 C0.905604466,15.1169656 0.655459747,14.9356264 0.500480176,14.6822457 C0.473323457,14.6240015 0.44078991,14.5683948 0.403298909,14.5161423 L0.403298909,14.5161423 C0.364625257,14.2559305 0.364625257,13.9914699 0.403298909,13.7312581 C0.516982655,12.0775255 0.625165575,10.4237929 0.738849322,8.77006028 C2.11161112,8.77006028 3.48437292,8.77006028 4.85713472,8.77006028 C4.85713472,8.84854869 4.85713472,8.92703711 4.85713472,9.00552552 C5.29170001,9.00552552 5.74826861,8.96171803 6.15899698,9.13329736 C6.44176041,9.2420946 6.66006808,9.47215852 6.75308624,9.75937935 C6.84939736,10.0794011 6.83975448,10.4217742 6.7255821,10.7359212 C6.61364584,11.0290445 6.3698737,11.2527867 6.06731654,11.3400995 C5.70271146,11.4511505 5.31072595,11.4330911 4.95798321,11.2889908 C4.68286408,11.1734422 4.47289348,10.9430522 4.38406365,10.6592581 C4.34658517,10.5342724 4.32744018,10.4045525 4.32722177,10.2741173 L3.53876998,10.2741173 C3.52188648,10.9919237 3.97121763,11.6389215 4.65177053,11.8767412 C5.08221221,12.0376956 5.54749036,12.0836353 6.00130662,12.009989 C6.44753516,11.9495689 6.85930064,11.7381727 7.16748183,11.4112867 C7.43582714,11.1018703 7.58924458,10.7100739 7.60204712,10.301497 C7.63800945,9.91088024 7.52764242,9.52081765 7.29216723,9.20630983 C7.14720693,9.03178698 6.96976831,8.88675975 6.76958872,8.77918684 C6.86422716,8.77312016 6.95915964,8.77312016 7.05379808,8.77918684 L9.97106971,8.77918684 C10.0920879,8.75910841 10.2186069,8.77006028 10.3359579,8.74815654 Z" id="Path" fill="#4483EF"></path>
                <path d="M0.258443812,2.66804245 C0.475074566,2.41294342 0.795756844,2.26875284 1.13124161,2.27560039 C5.51478908,2.27560039 9.89833656,2.27560039 14.281884,2.27560039 C14.4957039,2.27835161 14.7043148,2.34166471 14.8833077,2.45813158 C15.1276937,2.61754492 15.3030637,2.8624731 15.3747149,3.14444887 C15.3910633,3.24295651 15.3910633,3.34346708 15.3747149,3.44197472 C15.1363457,5.21800324 14.8888086,6.99220645 14.6541066,8.76823497 L11.6854939,8.76823497 C11.5204692,8.76823497 11.3554444,8.76823497 11.1904196,8.76823497 L11.1775843,8.76823497 C11.1775843,7.6730478 11.1775843,6.57786064 11.1775843,5.48267347 C11.1122576,5.47340287 11.0456543,5.47965778 10.9832218,5.50092659 C10.2222741,5.76924745 9.45949285,6.03209237 8.69854519,6.30223853 C8.69854519,6.54865564 8.69854519,6.79689807 8.69854519,7.04331518 C9.24862783,6.86078399 9.79871048,6.67825279 10.3487931,6.4957216 C10.3487931,7.25261762 10.3487931,8.0089052 10.3487931,8.76458434 L10.3341243,8.76458434 C9.18261792,8.76458434 8.03111158,8.76458434 6.87960524,8.76458434 C6.82331643,8.77574732 6.76536844,8.77574732 6.70907962,8.76458434 C6.64433023,8.73200568 6.57684032,8.70513187 6.50738266,8.68427062 C7.01422254,8.47852592 7.38388521,8.03378568 7.49203059,7.49964317 C7.53265704,7.16258041 7.48855266,6.82075008 7.36367797,6.50484816 C7.23493905,6.1884947 7.0039583,5.92387609 6.70724602,5.75281964 C6.32957526,5.54231326 5.9000611,5.4417456 5.46772646,5.46259504 C5.03260735,5.47385922 4.61145593,5.61785548 4.26121186,5.87511554 C3.95517106,6.10312105 3.73651989,6.42832582 3.64145208,6.79689807 C3.60669072,6.93855362 3.5882359,7.083687 3.58644381,7.229497 C3.85231709,7.229497 4.11819037,7.229497 4.38406365,7.229497 C4.36829777,6.87285577 4.53019268,6.5314101 4.81679533,6.31684103 C5.12061004,6.12318428 5.48736779,6.05264652 5.84178266,6.11970734 C6.10724972,6.14967453 6.34895453,6.2861307 6.51104987,6.49754691 C6.68685705,6.78428295 6.75202002,7.12484055 6.69441075,7.45583568 C6.64456897,7.80143661 6.41731129,8.09615742 6.09482067,8.23341857 C5.70792921,8.41594976 5.27153031,8.36301572 4.85713472,8.37396759 L4.8534675,8.37396759 C4.8534675,8.4980888 4.8534675,8.62221001 4.8534675,8.73902998 C3.4794833,8.73902998 2.1061103,8.73902998 0.733348495,8.73902998 C0.498646567,6.99889926 0.262722233,5.25937698 0.0255754926,3.52046313 C-0.00852516419,3.35670895 -0.00852516419,3.18773246 0.0255754926,3.02397828 C0.0887369406,2.89655571 0.166909587,2.77706996 0.258443812,2.66804245 Z" id="Path" fill="#3664D0"></path>
                <path d="M0.410633344,14.5179676 C0.448124345,14.5702201 0.480657892,14.6258268 0.507814611,14.684071 C0.65701527,14.9424288 0.904026909,15.1304653 1.19358431,15.2061102 C1.32077983,15.2321168 1.45086367,15.2413226 1.58047577,15.2334899 C5.69998357,15.2334899 9.81888018,15.2334899 13.9371656,15.2334899 C14.3164759,15.229772 14.6671069,15.0317963 14.8649716,14.7096253 C14.8960006,14.6409884 14.9347544,14.5760787 14.980489,14.5161423 C14.880185,14.8718648 14.6064695,15.1532641 14.2525463,15.2645202 C14.0563079,15.3146665 13.8531553,15.3325469 13.6511226,15.3174542 L1.62448238,15.3174542 C1.46343195,15.3273956 1.30182584,15.3113697 1.14591048,15.2699961 C0.788272611,15.1601438 0.511268545,14.8768289 0.410633344,14.5179676 Z" id="Path" fill="#3664D0"></path>
            </g>
        </g>
    </g>
</svg>