<?xml version="1.0" encoding="UTF-8"?>
<svg width="16px" height="16px" viewBox="0 0 16 16" version="1.1" xmlns="http://www.w3.org/2000/svg" xmlns:xlink="http://www.w3.org/1999/xlink">
    <title>UI/Icon/dms/image</title>
    <defs>
        <path d="M7.375,0 L11.5,4.2 L11.5,12.6 C11.5,13.3247059 10.9519031,13.9253979 10.2569306,13.9935599 L10.125,14 L1.868125,14 C1.15636029,14 0.572484862,13.4419377 0.506256488,12.7343293 L0.5,12.6 L0.506875,1.4 C0.506875,0.675294118 1.04888192,0.0746020761 1.74313798,0.00644005699 L1.875,0 L7.375,0 Z M7.16493706,6.93440267 C7.05379419,6.85248249 6.89728567,6.87617217 6.81536549,6.98731504 L6.81536549,6.98731504 L4.75981532,9.77528571 L4.03603909,9.03857749 C3.9344891,8.93872511 3.77620384,8.9401013 3.67942526,9.03857749 L3.67942526,9.03857749 L2.16971793,10.5747669 C2.12377091,10.6215199 2.09802484,10.6844487 2.09802484,10.75 C2.09802484,10.8880712 2.20995365,11 2.34802484,11 L2.34802484,11 L9.68064362,11 C9.7340243,11 9.78600349,10.9829137 9.82897322,10.951242 C9.94011609,10.8693218 9.96380576,10.7128133 9.88188559,10.6016704 L9.88188559,10.6016704 L7.21784943,6.98731504 C7.2029664,6.96712291 7.18512918,6.94928569 7.16493706,6.93440267 Z M3.15575989,6 C2.7680713,6 2.4537876,6.31979661 2.4537876,6.71428571 C2.4537876,7.10877482 2.7680713,7.42857143 3.15575989,7.42857143 C3.54344848,7.42857143 3.85773217,7.10877482 3.85773217,6.71428571 C3.85773217,6.31979661 3.54344848,6 3.15575989,6 Z M7.29861111,1.05 L7.29861111,4.26363636 L10.46875,4.26363636 L7.29861111,1.05 Z" id="path-1"></path>
    </defs>
    <g id="UI/Icon/dms/image" stroke="none" stroke-width="1" fill="none" fill-rule="evenodd">
        <g id="Group" transform="translate(2.000000, 1.000000)">
            <mask id="mask-2" fill="white">
                <use xlink:href="#path-1"></use>
            </mask>
            <use id="Combined-Shape" fill="#000000" fill-rule="nonzero" xlink:href="#path-1"></use>
            <rect id="Rectangle" fill="#4E5F7B" mask="url(#mask-2)" x="-2" y="-1" width="16" height="16"></rect>
        </g>
    </g>
</svg>