<?xml version="1.0" encoding="UTF-8"?>
<svg width="16px" height="16px" viewBox="0 0 16 16" version="1.1" xmlns="http://www.w3.org/2000/svg" xmlns:xlink="http://www.w3.org/1999/xlink">
    <!-- Generator: Sketch 61.2 (89653) - https://sketch.com -->
    <title>UI/Icon/system/m-exchange</title>
    <desc>Created with Sketch.</desc>
    <g id="UI/Icon/system/m-exchange" stroke="none" stroke-width="1" fill="none" fill-rule="evenodd">
        <g id="Microsoft_Exchange_icon_new_(2019)" transform="translate(0.000000, 1.000000)" fill-rule="nonzero">
            <path d="M14.8496634,-6.24014762e-09 L11.3305283,-6.24014762e-09 C11.063669,-6.24014762e-09 10.80774,0.106008209 10.6190991,0.294763243 L2.31278126,8.60108108 C2.12402905,8.78971918 2.01801801,9.04564349 2.01801801,9.31249874 L2.01801801,12.8316339 C2.01801801,13.0984987 2.12400569,13.3544382 2.31270653,13.5431412 C2.50140736,13.7318442 2.75734564,13.8378378 3.02421045,13.8378378 L6.54334559,13.8378378 C6.81020483,13.8378378 7.06613386,13.7318296 7.25477477,13.5430746 L15.5612252,5.23675676 C15.7498861,5.0480684 15.8558559,4.79216529 15.8558559,4.5253391 L15.8558559,1.00620396 C15.8558559,0.739339391 15.7498672,0.483400337 15.5611665,0.294697506 C15.3724658,0.105994675 15.116528,-6.24014762e-09 14.8496634,-6.24014762e-09 Z" id="Path" fill="#28A8EA"></path>
            <path d="M14.8497297,13.8378378 L11.3305225,13.8378378 C11.0636814,13.8378378 10.8077696,13.7318349 10.6190847,13.5431495 L8.93693694,11.8610047 L8.93693694,8.71783784 C8.93693694,7.72432235 9.74234037,6.91891892 10.7358559,6.91891892 L13.8790227,6.91891892 L15.5611676,8.60108108 C15.7498494,8.78976248 15.8558559,9.04566842 15.8558559,9.3125045 L15.8558559,12.8317117 C15.8558559,13.3873798 15.4053978,13.8378378 14.8497297,13.8378378 Z" id="Path" fill="#0078D4"></path>
            <path d="M3.02414414,0 L6.54335135,0 C6.81019243,0 7.06610425,0.106002945 7.25478919,0.294688288 L8.93693694,1.97683315 L8.93693694,5.12 C8.93693694,6.11351549 8.1315335,6.91891892 7.13801802,6.91891892 L3.99485117,6.91891892 L2.31270631,5.23677117 C2.12402096,5.04808624 2.01801802,4.79217442 2.01801802,4.52533333 L2.01801802,1.00612613 C2.01801802,0.45045801 2.46847603,0 3.02414414,0 Z" id="Path" fill="#50D9FF"></path>
            <path d="M8.36036036,3.55461766 L8.36036036,11.148085 C8.36099681,11.1868309 8.35712699,11.2255194 8.34882883,11.2633715 C8.29467983,11.5854778 8.01524954,11.820994 7.68862559,11.8198242 L2.01801802,11.8198242 L2.01801802,2.88288185 L7.68862559,2.88288185 C7.86687648,2.88256994 8.03791673,2.9532413 8.16395934,3.0792839 C8.29000195,3.20532651 8.3606733,3.37636677 8.36036036,3.55461766 Z" id="Path" fill="#000000" opacity="0.2"></path>
            <path d="M8.64864865,3.55461766 L8.64864865,10.5715085 C8.64370234,11.0996522 8.21676929,11.5265852 7.68862559,11.5315315 L2.01801802,11.5315315 L2.01801802,2.59459459 L7.68862559,2.59459459 C8.21806398,2.59644343 8.64679981,3.02517926 8.64864865,3.55461766 Z" id="Path" fill="#000000" opacity="0.1"></path>
            <path d="M8.3603614,3.55461766 L8.3603614,10.5715085 C8.3606733,10.7497594 8.29000195,10.9207996 8.16395934,11.0468422 C8.03791673,11.1728848 7.86687648,11.2435562 7.68862559,11.2432443 L2.01801802,11.2432443 L2.01801802,2.88288185 L7.68862559,2.88288185 C7.86687648,2.88256994 8.03791673,2.9532413 8.16395934,3.0792839 C8.29000195,3.20532651 8.3606733,3.37636677 8.3603614,3.55461766 Z" id="Path" fill="#000000" opacity="0.2"></path>
            <path d="M8.07207311,3.55461766 L8.07207311,10.5715085 C8.07238501,10.7497594 8.00171366,10.9207996 7.87567105,11.0468422 C7.74962844,11.1728848 7.57858819,11.2435562 7.4003373,11.2432443 L2.01801802,11.2432443 L2.01801802,2.88288185 L7.4003373,2.88288185 C7.57858819,2.88256994 7.74962844,2.9532413 7.87567105,3.0792839 C8.00171366,3.20532651 8.07238501,3.37636677 8.07207311,3.55461766 Z" id="Path" fill="#000000" opacity="0.1"></path>
            <rect id="Rectangle" fill="#0078D4" x="6.34234234e-05" y="2.88288288" width="8.07207207" height="8.07207207" rx="1"></rect>
            <polygon id="Path" fill="#FFFFFF" points="5.35793297 5.44323171 3.47045189 5.44323171 3.47045189 6.54696937 5.24208432 6.54696937 5.24208432 7.25435676 3.47045189 7.25435676 3.47045189 8.40074955 5.45851387 8.40074955 5.45851387 9.10515315 2.61368505 9.10515315 2.61368505 4.73268468 5.35793009 4.73268468"></polygon>
        </g>
    </g>
</svg>