<?xml version="1.0" encoding="UTF-8"?>
<svg width="16px" height="16px" viewBox="0 0 16 16" version="1.1" xmlns="http://www.w3.org/2000/svg" xmlns:xlink="http://www.w3.org/1999/xlink">
    <!-- Generator: Sketch 61.2 (89653) - https://sketch.com -->
    <title>UI/Icon/system/m-outlook</title>
    <desc>Created with Sketch.</desc>
    <g id="UI/Icon/system/m-outlook" stroke="none" stroke-width="1" fill="none" fill-rule="evenodd">
        <g id="icons8-microsoft-outlook-2019" transform="translate(0.000000, 0.800000)" fill-rule="nonzero">
            <path d="M15.8428,7.1008 L12.978,5.432 L12.978,10.0696 L16,10.0696 L16,7.3744 C16,7.262 15.94,7.1576 15.8428,7.1008 Z" id="Path" fill="#1A237E"></path>
            <path d="M11.9676,1.136 L15.586,1.136 L15.586,0.6928 C15.586,0.31 15.276,0 14.8936,0 L5.4668,0 C5.0844,0 4.774,0.31 4.774,0.6928 L4.774,1.136 L8.376,1.136 L11.9676,1.136 Z" id="Path" fill="#0C4999"></path>
            <path d="M11.9676,11.0088 L14.8932,11.0088 C15.2756,11.0088 15.586,10.6988 15.586,10.316 L15.586,7.5852 L11.9676,7.5852 L11.9676,11.0088 Z" id="Path" fill="#0F73D9"></path>
            <path d="M4.7744,7.5856 L4.7744,10.3164 C4.7744,10.6988 5.0844,11.0092 5.4672,11.0092 L8.3764,11.0092 L8.3764,7.586 L4.7744,7.586 L4.7744,7.5856 Z" id="Path" fill="#0F439D"></path>
            <polygon id="Path" fill="#2ECDFD" points="11.9676 1.136 15.586 1.136 15.586 4.3468 11.9676 4.3468"></polygon>
            <polygon id="Path" fill="#1C5FB0" points="4.7744 1.136 8.3764 1.136 8.3764 4.3468 4.7744 4.3468"></polygon>
            <polygon id="Path" fill="#1467C7" points="8.376 7.5856 11.9676 7.5856 11.9676 11.0088 8.376 11.0088"></polygon>
            <polygon id="Path" fill="#1690D5" points="8.376 1.136 11.9676 1.136 11.9676 4.3468 8.376 4.3468"></polygon>
            <polygon id="Path" fill="#1BB4FF" points="11.9676 4.3468 15.586 4.3468 15.586 7.5852 11.9676 7.5852"></polygon>
            <polygon id="Path" fill="#074DAF" points="4.7744 4.3468 8.3764 4.3468 8.3764 7.5852 4.7744 7.5852"></polygon>
            <polygon id="Path" fill="#2076D4" points="8.376 4.3468 11.9676 4.3468 11.9676 7.5852 8.376 7.5852"></polygon>
            <path d="M4.5764,14.4 C4.7616,14.4 15.3244,14.4 15.3244,14.4 C15.6976,14.4 16,14.0976 16,13.7244 L16,7.3752 C16,7.3752 15.988,7.6384 15.2996,8.022 C14.7796,8.3116 4.2976,14.2264 4.2976,14.2264 C4.2976,14.2264 4.3912,14.4 4.5764,14.4 Z" id="Path" fill="#2ED0FF"></path>
            <path d="M15.3116,14.3988 C15.2472,14.3988 4.6756,14.4 4.6756,14.4 C4.3024,14.4 4,14.0976 4,13.7244 L4,7.6268 L15.7452,14.2516 C15.6472,14.33 15.5228,14.3988 15.3116,14.3988 Z" id="Path" fill="#139FE2"></path>
            <path d="M7.3276,11.2 L0.6724,11.2 C0.3012,11.2 0,10.8988 0,10.5276 L0,3.8724 C0,3.5012 0.3012,3.2 0.6724,3.2 L7.3276,3.2 C7.6988,3.2 8,3.5012 8,3.8724 L8,10.5276 C8,10.8988 7.6988,11.2 7.3276,11.2 Z" id="Path" fill="#00488D"></path>
            <path d="M3.9656,5.0936 C2.7132,5.0936 1.9588,6.0504 1.9588,7.2308 C1.9588,8.4112 2.7104,9.3676 3.9656,9.3676 C5.2212,9.3676 5.9724,8.4108 5.9724,7.2308 C5.9724,6.0504 5.218,5.0936 3.9656,5.0936 Z M3.9656,8.6464 C3.2552,8.6464 2.8304,8.0128 2.8304,7.2308 C2.8304,6.4488 3.2572,5.8152 3.9656,5.8152 C4.674,5.8152 5.1012,6.4492 5.1012,7.2308 C5.1012,8.0124 4.6756,8.6464 3.9656,8.6464 Z" id="Shape" fill="#FFFFFF"></path>
        </g>
    </g>
</svg>