<?xml version="1.0" encoding="UTF-8"?>
<svg width="16px" height="16px" viewBox="0 0 16 16" version="1.1" xmlns="http://www.w3.org/2000/svg" xmlns:xlink="http://www.w3.org/1999/xlink">
    <title>UI/Icon/dms/presentation</title>
    <g id="UI/Icon/dms/presentation" stroke="none" stroke-width="1" fill="none" fill-rule="evenodd">
        <g id="microsoft-powerpoint-logo@logotyp.us" transform="translate(1.000000, 1.332500)">
            <g id="Group" transform="translate(0.000000, 0.242424)">
                <path d="M7.875,0.04743083 C4.51862727,0.0571699605 1.7598,2.79886166 1.75,6.13438735 L9.50994545,7.75917787 L7.875,0.04743083 Z" id="Path" fill="#ED6C47"></path>
                <path d="M7.875,0.04743083 C11.2313727,0.0571699605 13.9902,2.79886166 14,6.13438735 L10.9375,8.20306719 L7.875,6.13438735 L7.875,0.04743083 Z" id="Path" fill="#FF8F6B"></path>
                <path d="M7.875,12.2213439 C11.2313727,12.2116047 13.9902,9.46991304 14,6.13438735 L1.75,6.13438735 C1.7598,9.46991304 4.51862727,12.2116047 7.875,12.2213439 Z" id="Path" fill="#D35230"></path>
                <path d="M0.583163636,2.65612648 L6.41639091,2.65612648 C6.73629091,2.65612648 6.99955455,2.91775494 6.99955455,3.23566798 L6.99955455,9.03266403 C6.99955455,9.35057708 6.73629091,9.61220553 6.41639091,9.61220553 L0.583163636,9.61220553 C0.263263636,9.61220553 0,9.35057708 0,9.03266403 L0,3.23566798 C0,2.91775494 0.263263636,2.65612648 0.583163636,2.65612648 Z" id="Path" fill="#C43E1C"></path>
                <path d="M3.49866364,3.96047431 C3.92935455,3.9316996 4.35667273,4.05571542 4.704,4.31045059 C4.99246364,4.56632411 5.14690909,4.9404585 5.12221818,5.32395257 C5.12692727,5.56964427 5.05463636,5.81084585 4.91533636,6.01397628 C4.77349091,6.23867194 4.56928182,6.41796047 4.32733636,6.53002372 C4.05070909,6.65751779 3.74843636,6.72037945 3.44355455,6.71392885 L2.6075,6.71392885 L2.6075,8.30785771 L1.75,8.30785771 L1.75,3.96003162 L3.49866364,3.96047431 Z M2.6075,5.99658498 L3.34555455,5.99658498 C3.57935455,6.0135336 3.8115,5.94485375 3.99789091,5.80350988 C4.14858182,5.70719368 4.2336,5.53530435 4.21839091,5.3578498 C4.21839091,4.87702767 3.93660909,4.63658498 3.37310909,4.63658498 L2.6075,4.63658498 L2.6075,5.99658498 Z" id="Shape" fill="#F9F7F7"></path>
            </g>
        </g>
    </g>
</svg>