<?xml version="1.0" encoding="UTF-8"?>
<svg width="16px" height="16px" viewBox="0 0 16 16" version="1.1" xmlns="http://www.w3.org/2000/svg" xmlns:xlink="http://www.w3.org/1999/xlink">
    <title>UI/Icon/dms/word</title>
    <g id="UI/Icon/dms/word" stroke="none" stroke-width="1" fill="none" fill-rule="evenodd">
        <g id="icons8-microsoft-word-2019" transform="translate(1.000000, 1.000000)">
            <rect id="Rectangle" x="0" y="0" width="14" height="14"></rect>
            <g id="Group-5" transform="translate(0.583333, 1.166667)" fill-rule="nonzero">
                <path d="M12.2738,0 L3.76786667,0 C3.45890417,0 3.20833333,0.253101852 3.20833333,0.565185185 L3.20833333,2.91763889 L12.8333333,2.91763889 L12.8333333,0.565185185 C12.8333333,0.253101852 12.5827625,0 12.2738,0 Z" id="Path" fill="#2D92D4"></path>
                <path d="M3.20833333,8.7675 L3.20833333,11.1014815 C3.20833333,11.4135648 3.45890417,11.6666667 3.76754583,11.6666667 L12.2738,11.6666667 C12.5827625,11.6666667 12.8333333,11.4135648 12.8333333,11.1014815 L12.8333333,8.7675 L3.20833333,8.7675 Z" id="Path" fill="#2150A9"></path>
                <polygon id="Path" fill="#2D83D4" points="3.20833333 2.91763889 12.8333333 2.91763889 12.8333333 5.8349537 3.20833333 5.8349537"></polygon>
                <polygon id="Path" fill="#2E70C9" points="3.20833333 5.8349537 12.8333333 5.8349537 12.8333333 8.76782407 3.20833333 8.76782407"></polygon>
                <path d="M5.87734583,9.07407407 L0.539320833,9.07407407 C0.2415875,9.07407407 0,8.8300463 0,8.52930556 L0,3.13736111 C0,2.83662037 0.2415875,2.59259259 0.539320833,2.59259259 L5.87734583,2.59259259 C6.17507917,2.59259259 6.41666667,2.83662037 6.41666667,3.13736111 L6.41666667,8.52930556 C6.41666667,8.8300463 6.17507917,9.07407407 5.87734583,9.07407407 Z" id="Path" fill="#00488D"></path>
                <polygon id="Path" fill="#FFFFFF" points="4.6209625 4.21296296 4.12495417 6.56703704 3.57536667 4.21296296 2.87370417 4.21296296 2.30679167 6.6399537 1.79570417 4.21296296 1.16815417 4.21296296 1.9201875 7.4537037 2.6747875 7.4537037 3.224375 4.96189815 3.77428333 7.4537037 4.49647917 7.4537037 5.2485125 4.21296296"></polygon>
            </g>
        </g>
    </g>
</svg>