<?xml version="1.0" encoding="UTF-8"?>
<svg width="16px" height="16px" viewBox="0 0 16 16" version="1.1" xmlns="http://www.w3.org/2000/svg" xmlns:xlink="http://www.w3.org/1999/xlink">
    <title>UI/Icon/text editor/bullet list</title>
    <defs>
        <path d="M1.66666667,4 C1.11333333,4 0.666666667,4.44666667 0.666666667,5 C0.666666667,5.55333333 1.11333333,6 1.66666667,6 C2.22,6 2.66666667,5.55333333 2.66666667,5 C2.66666667,4.44666667 2.22,4 1.66666667,4 Z M1.66666667,0 C1.11333333,0 0.666666667,0.446666667 0.666666667,1 C0.666666667,1.55333333 1.11333333,2 1.66666667,2 C2.22,2 2.66666667,1.55333333 2.66666667,1 C2.66666667,0.446666667 2.22,0 1.66666667,0 Z M1.66666667,8 C1.11333333,8 0.666666667,8.45333333 0.666666667,9 C0.666666667,9.54666667 1.12,10 1.66666667,10 C2.21333333,10 2.66666667,9.54666667 2.66666667,9 C2.66666667,8.45333333 2.22,8 1.66666667,8 Z M3.66666667,9.66666667 L13,9.66666667 L13,8.33333333 L3.66666667,8.33333333 L3.66666667,9.66666667 Z M3.66666667,5.66666667 L13,5.66666667 L13,4.33333333 L3.66666667,4.33333333 L3.66666667,5.66666667 Z M3.66666667,0.333333333 L3.66666667,1.66666667 L13,1.66666667 L13,0.333333333 L3.66666667,0.333333333 Z" id="path-1"></path>
    </defs>
    <g id="UI/Icon/text-editor/bullet-list" stroke="none" stroke-width="1" fill="none" fill-rule="evenodd">
        <g id="Rectangle" transform="translate(1.000000, 3.000000)">
            <mask id="mask-2" fill="white">
                <use xlink:href="#path-1"></use>
            </mask>
            <!-- <use id="Mask" fill="#000000" fill-rule="nonzero" xlink:href="#path-1"></use> -->
            <rect fill="#4E5F7B" mask="url(#mask-2)" x="-1" y="-3" width="16" height="16"></rect>
        </g>
    </g>
</svg>