<?xml version="1.0" encoding="UTF-8"?>
<svg width="12px" height="12px" viewBox="0 0 12 12" version="1.1" xmlns="http://www.w3.org/2000/svg" xmlns:xlink="http://www.w3.org/1999/xlink">
    <title>UI/Icon/text editor/image</title>
    <defs>
        <path d="M12,10.6666667 L12,1.33333333 C12,0.6 11.4,0 10.6666667,0 L1.33333333,0 C0.6,0 0,0.6 0,1.33333333 L0,10.6666667 C0,11.4 0.6,12 1.33333333,12 L10.6666667,12 C11.4,12 12,11.4 12,10.6666667 Z M3.66666667,7 L5.33333333,9.00666667 L7.66666667,6 L10.6666667,10 L1.33333333,10 L3.66666667,7 Z" id="path-1"></path>
    </defs>
    <g id="Manage-Firm-Level-Billing-Settings-2.0-+-2.5" stroke="none" stroke-width="1" fill="none" fill-rule="evenodd">
        <g id="1.1.billing.firm-content-settings.content-&amp;-templates.invoice-content.default" transform="translate(-605.000000, -1025.000000)">
            <g id="Group-3" transform="translate(308.000000, 990.000000)">
                <g id="UI/Icon/text-editor/image" transform="translate(295.000000, 33.000000)">
                    <g id="Rectangle" transform="translate(2.000000, 2.000000)">
                        <mask id="mask-2" fill="white">
                            <use xlink:href="#path-1"></use>
                        </mask>
                        <!-- <use id="Mask" fill="#000000" fill-rule="nonzero" xlink:href="#path-1"></use> -->
                        <rect fill="#4E5F7B" mask="url(#mask-2)" x="-2" y="-2" width="16" height="16"></rect>
                    </g>
                </g>
            </g>
        </g>
    </g>
</svg>
