<?xml version="1.0" encoding="UTF-8"?>
<svg width="16px" height="16px" viewBox="0 0 16 16" version="1.1" xmlns="http://www.w3.org/2000/svg" xmlns:xlink="http://www.w3.org/1999/xlink">
    <title>UI/Icon/text editor/indent left</title>
    <defs>
        <path d="M0,12 L12,12 L12,10.6666667 L0,10.6666667 L0,12 Z M0,3.33333333 L0,8.66666667 L2.66666667,6 L0,3.33333333 Z M5.33333333,9.33333333 L12,9.33333333 L12,8 L5.33333333,8 L5.33333333,9.33333333 Z M0,0 L0,1.33333333 L12,1.33333333 L12,0 L0,0 Z M5.33333333,4 L12,4 L12,2.66666667 L5.33333333,2.66666667 L5.33333333,4 Z M5.33333333,6.66666667 L12,6.66666667 L12,5.33333333 L5.33333333,5.33333333 L5.33333333,6.66666667 Z" id="path-1"></path>
    </defs>
    <g id="UI/Icon/text-editor/indent-left" stroke="none" stroke-width="1" fill="none" fill-rule="evenodd">
        <g id="format_indent_increase-24px" transform="translate(2.000000, 2.000000)"></g>
        <g id="Rectangle" transform="translate(2.000000, 2.000000)">
            <mask id="mask-2" fill="white">
                <use xlink:href="#path-1"></use>
            </mask>
            <!-- <use id="Mask" fill="#000000" fill-rule="nonzero" xlink:href="#path-1"></use> -->
            <rect fill="#4E5F7B" mask="url(#mask-2)" x="-2" y="-2" width="16" height="16"></rect>
        </g>
    </g>
</svg>